<?xml version="1.0" encoding="UTF-8" standalone="no"?>
<svg
   xmlns:dc="http://purl.org/dc/elements/1.1/"
   xmlns:cc="http://creativecommons.org/ns#"
   xmlns:rdf="http://www.w3.org/1999/02/22-rdf-syntax-ns#"
   xmlns:svg="http://www.w3.org/2000/svg"
   xmlns="http://www.w3.org/2000/svg"
   xmlns:sodipodi="http://sodipodi.sourceforge.net/DTD/sodipodi-0.dtd"
   xmlns:inkscape="http://www.inkscape.org/namespaces/inkscape"
   width="210mm"
   height="297mm"
   viewBox="0 0 210 297"
   version="1.1"
   id="svg8"
   inkscape:version="1.0 (4035a4fb49, 2020-05-01)"
   sodipodi:docname="const2.svg">
  <defs
     id="defs2">
    <marker
       inkscape:isstock="true"
       style="overflow:visible"
       id="Arrow1Lstart-6"
       refX="0"
       refY="0"
       orient="auto"
       inkscape:stockid="Arrow1Lstart">
      <path
         transform="matrix(0.8,0,0,0.8,10,0)"
         style="fill:#000000;fill-opacity:1;fill-rule:evenodd;stroke:#000000;stroke-width:1pt;stroke-opacity:1"
         d="M 0,0 5,-5 -12.5,0 5,5 Z"
         id="path2035-2" />
    </marker>
    <marker
       inkscape:isstock="true"
       style="overflow:visible"
       id="Arrow1Lstart-6-8-3"
       refX="0"
       refY="0"
       orient="auto"
       inkscape:stockid="Arrow1Lstart">
      <path
         transform="matrix(0.8,0,0,0.8,10,0)"
         style="fill:#000000;fill-opacity:1;fill-rule:evenodd;stroke:#000000;stroke-width:1pt;stroke-opacity:1"
         d="M 0,0 5,-5 -12.5,0 5,5 Z"
         id="path2035-2-2-4" />
    </marker>
    <marker
       inkscape:isstock="true"
       style="overflow:visible"
       id="marker3428"
       refX="0"
       refY="0"
       orient="auto"
       inkscape:stockid="Arrow1Lstart">
      <path
         transform="matrix(0.8,0,0,0.8,10,0)"
         style="fill:#000000;fill-opacity:1;fill-rule:evenodd;stroke:#000000;stroke-width:1pt;stroke-opacity:1"
         d="M 0,0 5,-5 -12.5,0 5,5 Z"
         id="path3426" />
    </marker>
    <marker
       inkscape:stockid="Arrow1Lstart"
       orient="auto"
       refY="0"
       refX="0"
       id="marker3428-0"
       style="overflow:visible"
       inkscape:isstock="true">
      <path
         id="path3426-4"
         d="M 0,0 5,-5 -12.5,0 5,5 Z"
         style="fill:#000000;fill-opacity:1;fill-rule:evenodd;stroke:#000000;stroke-width:1pt;stroke-opacity:1"
         transform="matrix(0.8,0,0,0.8,10,0)" />
    </marker>
    <marker
       inkscape:isstock="true"
       style="overflow:visible"
       id="marker4132"
       refX="0"
       refY="0"
       orient="auto"
       inkscape:stockid="Arrow1Lstart">
      <path
         transform="matrix(0.8,0,0,0.8,10,0)"
         style="fill:#000000;fill-opacity:1;fill-rule:evenodd;stroke:#000000;stroke-width:1pt;stroke-opacity:1"
         d="M 0,0 5,-5 -12.5,0 5,5 Z"
         id="path4130" />
    </marker>
    <filter
       inkscape:collect="always"
       style="color-interpolation-filters:sRGB"
       id="filter2984-7-9"
       x="-1.1865149e-06"
       width="1.0000024"
       y="-1.2137953e-06"
       height="1.0000024">
      <feGaussianBlur
         inkscape:collect="always"
         stdDeviation="1.4337054e-06"
         id="feGaussianBlur2986-2-3" />
    </filter>
    <marker
       inkscape:collect="always"
       inkscape:stockid="Arrow1Lstart"
       orient="auto"
       refY="0"
       refX="0"
       id="marker3428-0-3-5"
       style="overflow:visible"
       inkscape:isstock="true">
      <path
         id="path3426-4-0-7"
         d="M 0,0 5,-5 -12.5,0 5,5 Z"
         style="fill:#000000;fill-opacity:1;fill-rule:evenodd;stroke:#000000;stroke-width:1pt;stroke-opacity:1"
         transform="matrix(0.8,0,0,0.8,10,0)" />
    </marker>
    <marker
       inkscape:stockid="Arrow1Lstart"
       orient="auto"
       refY="0"
       refX="0"
       id="marker4132-7"
       style="overflow:visible"
       inkscape:isstock="true">
      <path
         id="path4130-6"
         d="M 0,0 5,-5 -12.5,0 5,5 Z"
         style="fill:#000000;fill-opacity:1;fill-rule:evenodd;stroke:#000000;stroke-width:1pt;stroke-opacity:1"
         transform="matrix(0.8,0,0,0.8,10,0)" />
    </marker>
    <marker
       inkscape:isstock="true"
       style="overflow:visible"
       id="marker3428-0-1"
       refX="0"
       refY="0"
       orient="auto"
       inkscape:stockid="Arrow1Lstart">
      <path
         transform="matrix(0.8,0,0,0.8,10,0)"
         style="fill:#000000;fill-opacity:1;fill-rule:evenodd;stroke:#000000;stroke-width:1pt;stroke-opacity:1"
         d="M 0,0 5,-5 -12.5,0 5,5 Z"
         id="path3426-4-06" />
    </marker>
    <marker
       inkscape:stockid="Arrow1Lstart"
       orient="auto"
       refY="0"
       refX="0"
       id="marker3428-5"
       style="overflow:visible"
       inkscape:isstock="true">
      <path
         id="path3426-0"
         d="M 0,0 5,-5 -12.5,0 5,5 Z"
         style="fill:#000000;fill-opacity:1;fill-rule:evenodd;stroke:#000000;stroke-width:1pt;stroke-opacity:1"
         transform="matrix(0.8,0,0,0.8,10,0)" />
    </marker>
    <filter
       height="1.0000024"
       y="-1.2137953e-06"
       width="1.0000024"
       x="-1.1865149e-06"
       id="filter2984-7-9-3"
       style="color-interpolation-filters:sRGB"
       inkscape:collect="always">
      <feGaussianBlur
         id="feGaussianBlur2986-2-3-0"
         stdDeviation="1.4337054e-06"
         inkscape:collect="always" />
    </filter>
    <filter
       inkscape:collect="always"
       style="color-interpolation-filters:sRGB"
       id="filter2984-7-9-3-0"
       x="-1.1865149e-06"
       width="1.0000024"
       y="-1.2137953e-06"
       height="1.0000024">
      <feGaussianBlur
         inkscape:collect="always"
         stdDeviation="1.4337054e-06"
         id="feGaussianBlur2986-2-3-0-7" />
    </filter>
    <filter
       height="1.0000024"
       y="-1.2137953e-06"
       width="1.0000024"
       x="-1.1865149e-06"
       id="filter2984-7-9-3-0-2"
       style="color-interpolation-filters:sRGB"
       inkscape:collect="always">
      <feGaussianBlur
         id="feGaussianBlur2986-2-3-0-7-1"
         stdDeviation="1.4337054e-06"
         inkscape:collect="always" />
    </filter>
  </defs>
  <sodipodi:namedview
     inkscape:object-paths="true"
     inkscape:object-nodes="false"
     inkscape:snap-smooth-nodes="true"
     id="base"
     pagecolor="#ffffff"
     bordercolor="#666666"
     borderopacity="1.0"
     inkscape:pageopacity="0.0"
     inkscape:pageshadow="2"
     inkscape:zoom="2"
     inkscape:cx="464.70796"
     inkscape:cy="382.36305"
     inkscape:document-units="mm"
     inkscape:current-layer="layer1"
     inkscape:document-rotation="0"
     showgrid="true"
     inkscape:window-width="1920"
     inkscape:window-height="1017"
     inkscape:window-x="-8"
     inkscape:window-y="-8"
     inkscape:window-maximized="1">
    <inkscape:grid
       id="grid53"
       type="xygrid" />
  </sodipodi:namedview>
  <metadata
     id="metadata5">
    <rdf:RDF>
      <cc:Work
         rdf:about="">
        <dc:format>image/svg+xml</dc:format>
        <dc:type
           rdf:resource="http://purl.org/dc/dcmitype/StillImage" />
        <dc:title />
      </cc:Work>
    </rdf:RDF>
  </metadata>
  <g
     inkscape:label="Sloj 1"
     inkscape:groupmode="layer"
     id="layer1">
    <g
       inkscape:label="Sloj 1"
       id="layer1-2"
       transform="translate(6.4568386,29.34356)">
      <path
         id="path1210-7-7-9"
         d="m 57.073919,51.656375 c 136.043101,0.0048 136.043101,0.0048 136.043101,0.0048 l 0.32845,-0.0044"
         style="fill:none;stroke:#000000;stroke-width:0.196926;stroke-linecap:round;stroke-linejoin:miter;stroke-miterlimit:3;stroke-dasharray:none;stroke-opacity:1;marker-start:url(#Arrow1Lstart-6-8-3)" />
      <path
         id="path2781-8-5-6"
         d="M 59.154198,51.65644 H 151.44221"
         style="fill:none;stroke:#000000;stroke-width:0.4;stroke-linecap:round;stroke-linejoin:miter;stroke-miterlimit:2;stroke-dasharray:none;stroke-opacity:1" />
      <ellipse
         style="opacity:1;fill:#000000;fill-opacity:1;stroke-width:2;stroke-linecap:round;stroke-linejoin:miter;stroke-miterlimit:4;stroke-dasharray:none;paint-order:stroke fill markers;filter:url(#filter2984-7-9)"
         id="path2786-6-6"
         cx="32.444042"
         cy="57.783108"
         rx="1.45"
         ry="1.4174107"
         transform="matrix(0.68965318,0,0,0.70551006,129.2001,10.889876)" />
      <path
         id="path3322-9-4-5"
         d="M 150.68994,50.281416 139.65051,35.579973"
         style="fill:none;stroke:#000000;stroke-width:0.181025;stroke-linecap:butt;stroke-linejoin:miter;stroke-miterlimit:4;stroke-dasharray:0.54308, 0.54308;stroke-dashoffset:0;stroke-opacity:1;marker-start:url(#marker3428-0-3-5)"
         inkscape:transform-center-x="5.6492188"
         inkscape:transform-center-y="-0.65843927" />
      <path
         id="path4034-0"
         d="M 152.55274,50.484587 163.89776,37.088323"
         style="fill:none;stroke:#000000;stroke-width:0.175907;stroke-linecap:butt;stroke-linejoin:miter;stroke-miterlimit:4;stroke-dasharray:0.527721, 0.527721;stroke-dashoffset:0;stroke-opacity:1;marker-start:url(#marker4132-7)"
         inkscape:transform-center-x="5.7294375"
         inkscape:transform-center-y="6.8090201" />
      <path
         inkscape:transform-center-y="-6.3269969"
         inkscape:transform-center-x="6.1897232"
         style="fill:none;stroke:#000000;stroke-width:0.177422;stroke-linecap:butt;stroke-linejoin:miter;stroke-miterlimit:4;stroke-dasharray:0.532265, 0.532265;stroke-dashoffset:0;stroke-opacity:1;marker-start:url(#marker3428-0-1)"
         d="m 152.71234,52.755808 12.29773,12.738655"
         id="path3322-9-2" />
      <path
         inkscape:transform-center-y="-5.9698572"
         inkscape:transform-center-x="-5.7738262"
         id="path3322-1"
         d="m 150.41095,52.870698 -11.5704,12.053094"
         style="fill:none;stroke:#000000;stroke-width:0.167418;stroke-linecap:butt;stroke-linejoin:miter;stroke-miterlimit:4;stroke-dasharray:0.502254, 0.502254;stroke-dashoffset:0;stroke-opacity:1;marker-start:url(#marker3428-5)" />
      <text
         xml:space="preserve"
         style="font-style:normal;font-weight:normal;font-size:4.23333px;line-height:1.25;font-family:sans-serif;fill:#000000;fill-opacity:1;stroke:none;stroke-width:0.264583"
         x="31.75"
         y="48.758926"
         id="text5123"><tspan
           sodipodi:role="line"
           id="tspan5121"
           x="31.75"
           y="48.758926"
           style="font-style:normal;font-variant:normal;font-weight:normal;font-stretch:normal;font-size:4.23333px;font-family:'Cambria Math';-inkscape-font-specification:'Cambria Math';stroke-width:0.264583" /></text>
      <ellipse
         transform="matrix(0.68965318,0,0,0.70551006,93.042929,10.904968)"
         ry="1.4174107"
         rx="1.45"
         cy="57.783108"
         cx="32.444042"
         id="path2786-6-6-1"
         style="opacity:1;fill:#000000;fill-opacity:1;stroke-width:2;stroke-linecap:round;stroke-linejoin:miter;stroke-miterlimit:4;stroke-dasharray:none;paint-order:stroke fill markers;filter:url(#filter2984-7-9-3)" />
      <path
         style="fill:none;stroke:#000000;stroke-width:0.8;stroke-linecap:round;stroke-linejoin:miter;stroke-miterlimit:2;stroke-dasharray:none;stroke-opacity:1"
         d="M 59.254589,51.65644 H 115.02429"
         id="path2781-8-5-6-8" />
      <rect
         style="font-variation-settings:normal;opacity:1;vector-effect:none;fill:#ff0004;fill-opacity:1;fill-rule:evenodd;stroke-width:0.223714;stroke-linecap:butt;stroke-linejoin:miter;stroke-miterlimit:3;stroke-dasharray:none;stroke-dashoffset:0;stroke-opacity:1;stop-color:#000000;stop-opacity:1"
         id="rect1434"
         width="2"
         height="20.178848"
         x="193.54317"
         y="41.58514" />
      <ellipse
         style="opacity:1;fill:#000000;fill-opacity:1;stroke-width:2;stroke-linecap:round;stroke-linejoin:miter;stroke-miterlimit:4;stroke-dasharray:none;paint-order:stroke fill markers;filter:url(#filter2984-7-9-3-0)"
         id="path2786-6-6-1-3"
         cx="32.444042"
         cy="57.783108"
         rx="1.45"
         ry="1.4174107"
         transform="matrix(0.68965318,0,0,0.70551006,62.495644,10.889876)" />
      <ellipse
         transform="matrix(0.68965318,0,0,0.70551006,171.16802,10.889876)"
         ry="1.4174107"
         rx="1.45"
         cy="57.783108"
         cx="32.444042"
         id="path2786-6-6-1-3-4"
         style="opacity:1;fill:#000000;fill-opacity:1;stroke-width:2;stroke-linecap:round;stroke-linejoin:miter;stroke-miterlimit:4;stroke-dasharray:none;paint-order:stroke fill markers;filter:url(#filter2984-7-9-3-0-2)" />
      <path
         id="path1443"
         d="m 84.82441,65.906439 v 18.520833 l 108.47917,10e-7"
         style="fill:none;stroke:#000000;stroke-width:0.264583px;stroke-linecap:butt;stroke-linejoin:miter;stroke-opacity:1" />
      <path
         id="path1447"
         d="m 193.30358,84.427272 h 0.26458"
         style="fill:none;stroke:#000000;stroke-width:0.264583px;stroke-linecap:butt;stroke-linejoin:miter;stroke-opacity:1" />
      <path
         id="path1497"
         d="m 84.82441,65.906439 c 0.741686,-0.343398 1.514658,-0.04264 2.268281,0.05831 0.736253,0.09863 1.507307,-0.06876 2.244976,0.01979 0.315722,0.0379 0.616932,0.168145 0.933757,0.195328 0.621345,0.05331 1.267161,-0.140083 1.870813,0.01648 0.13498,0.03501 0.236022,0.161827 0.372515,0.190381 0.657143,0.137464 1.393603,-0.08274 2.057895,0.01815 0.194971,0.02961 0.36462,0.16242 0.559594,0.19203 0.369935,0.05618 0.760298,-0.08405 1.122489,0.0099 0.13498,0.03501 0.237533,0.155369 0.372512,0.190381 0.351378,0.09114 0.771113,-0.08125 1.12249,0.0099 0.13498,0.03501 0.236019,0.16183 0.372512,0.190381 0.183126,0.03831 0.378119,-0.03336 0.561245,0.0049 0.136493,0.02855 0.237532,0.155366 0.372512,0.190378 0.120732,0.03132 0.252079,-0.02223 0.374163,0.0033 0.193032,0.04038 0.366564,0.151651 0.559594,0.192032 0.244172,0.05107 0.506862,-0.05604 0.748322,0.0066 0.13498,0.03501 0.24835,0.126918 0.37252,0.190378 0.18708,0.0016 0.37812,-0.03336 0.56124,0.0049 0.13649,0.02855 0.23753,0.155368 0.37252,0.190381 0.12073,0.03132 0.25618,-0.03718 0.37416,0.0033 0.26379,0.09052 0.47755,0.301781 0.74502,0.380759 0.17943,0.05298 0.37698,-0.02743 0.56125,0.0049 0.53105,0.09333 0.49744,0.204081 0.93211,0.38241 0.83028,0.340638 1.78249,0.67423 2.61089,0.958501 1.04027,0.356981 2.15966,0.518924 3.17213,0.963448 0.25537,0.11212 0.48966,0.268645 0.74503,0.380762 0.65668,0.288311 1.38981,0.324022 2.05295,0.57939 0.26026,0.100224 0.48123,0.290237 0.74502,0.380762 0.48642,0.166918 0.99843,0.247679 1.49336,0.387358 1.44277,0.407186 2.87725,0.862258 4.29132,1.347509 0.54383,0.186622 1.1366,0.202391 1.68043,0.389009 0.2638,0.09052 0.48477,0.280538 0.74503,0.380762 0.89059,0.342958 1.8813,0.393542 2.80127,0.585989 0.38606,0.08076 0.73313,0.3033 1.11919,0.384058 0.43163,0.09029 0.87629,0.108339 1.30792,0.198628 0.63392,0.13261 1.22481,0.443641 1.86587,0.577742 1.43566,0.300321 2.86138,0.641562 4.29462,0.973346 1.11542,0.258215 2.25394,0.490895 3.36087,0.778018 0.67868,0.176043 1.35271,0.485585 2.05294,0.57939 0.24725,0.03312 0.50066,-0.02312 0.74833,0.0066 0.88654,0.106426 1.74279,0.38956 2.61419,0.584338 1.92971,0.431339 -0.16904,-0.05636 2.61584,0.397256 1.43536,0.233799 0.024,0.190156 1.68043,0.389009 0.24768,0.02973 0.50066,-0.02313 0.74833,0.0066 1.06322,0.127635 2.12092,0.429143 3.17543,0.589288 0.18497,0.02809 0.37628,-0.02315 0.56125,0.0049 0.25421,0.03861 0.49246,0.155074 0.74667,0.19368 0.18497,0.02809 0.37699,-0.02743 0.56125,0.0049 0.19423,0.03414 0.36536,0.157895 0.55959,0.192031 0.18427,0.03238 0.37549,-0.01736 0.56125,0.0049 0.37663,0.04521 0.74373,0.155906 1.12084,0.19698 0.24798,0.02701 0.50108,-0.02653 0.74832,0.0066 0.50971,0.06828 0.98365,0.319077 1.49336,0.387358 0.24724,0.03312 0.5017,-0.03086 0.74832,0.0066 0.19497,0.02961 0.36462,0.16242 0.5596,0.192029 0.24662,0.03745 0.5017,-0.03086 0.74832,0.0066 0.19497,0.02961 0.36462,0.16242 0.5596,0.192032 0.24662,0.03745 0.5017,-0.03086 0.74832,0.0066 0.19497,0.02961 0.37306,0.128022 0.5596,0.192032 0.24944,0.0021 0.50065,-0.02312 0.74832,0.0066 0.87846,0.105455 1.73738,0.291798 2.61584,0.397256 0.49535,0.05947 1.00217,-0.05305 1.49665,0.0132 0.25485,0.03414 0.49183,0.159539 0.74668,0.193678 0.24724,0.03312 0.49888,0.0044 0.74832,0.0066 0.24889,0.06456 0.49247,0.155075 0.74668,0.19368 0.49325,0.07491 1.0013,-0.04627 1.49665,0.0132 0.2553,0.03065 0.49138,0.163031 0.74668,0.193678 2.46683,0.02175 -0.41724,-0.07931 1.68208,0.201927 0.61811,0.08281 1.25163,-0.05783 1.87081,0.01648 0.19581,0.02349 0.36537,0.157895 0.5596,0.192029 1.02996,0.181009 2.15042,-0.152964 3.18038,0.02804 0.25325,0.04451 0.49247,0.155075 0.74668,0.19368 0.6035,0.09165 1.27357,-0.108439 1.87081,0.01648 0.19303,0.04038 0.36657,0.151648 0.5596,0.192029 0.56456,0.1181 1.29117,0.01138 1.87081,0.01651 2.30734,0.02035 4.61467,0.04069 6.92201,0.06103 0.99777,0.0088 1.99554,0.0176 2.99331,0.02638 0.48218,0.0043 1.12425,-9.2e-5 1.12248,0.0099 -0.033,0.18675 -0.18359,0.331901 -0.27539,0.497853"
         style="fill:none;stroke:#000000;stroke-width:0.264583px;stroke-linecap:butt;stroke-linejoin:miter;stroke-opacity:1" />
    </g>
    <path
       d="m 199.71692,113.49339 c 0.008,10e-4 0.0151,0.002 0.0227,0.003 0.0387,0.003 0.0762,0.005 0.11522,0.006 0.0674,10e-4 0.12616,7.9e-4 0.19405,-0.002 0.0369,-10e-4 0.0737,-0.004 0.11055,-0.006 0.0334,-0.002 0.0667,-0.005 0.1001,-0.007 0,0 0.0216,-0.016 0.0216,-0.016 v 0 c -0.0334,0.002 -0.0668,0.005 -0.10025,0.007 -0.0368,0.002 -0.0736,0.004 -0.1104,0.005 -0.0668,0.002 -0.12685,0.003 -0.19331,0.001 -0.0389,-7.9e-4 -0.0757,-0.003 -0.11418,-0.006 -0.007,-7.9e-4 -0.0149,-0.002 -0.0223,-0.003 0,0 -0.0238,0.0166 -0.0238,0.0166 z"
       id="path1581"
       style="fill:#ffffff;fill-opacity:1;stroke-width:0.117512;stroke-linecap:round;stroke-dasharray:0.117512, 0.94009600000000004;paint-order:stroke fill markers" />
    <path
       d="m 199.81602,113.45447 c 0.0141,8e-4 0.0282,0.001 0.0423,0.002 0.0195,5.3e-4 0.039,0.001 0.0586,0.001 0.005,8e-5 0.011,1.2e-4 0.0165,1.8e-4 0.002,2e-5 0.003,4e-5 0.005,7e-5 2.2e-4,0 5.3e-4,2.5e-4 8e-4,4e-5 0.003,-0.0103 0.001,-0.006 -0.0116,-0.006 -0.0248,-5.3e-4 -0.0497,-10e-4 -0.0745,-0.002 -0.003,0.002 -0.008,0.003 -0.008,0.006 -6e-5,0.003 0.005,1.6e-4 0.008,2.1e-4 0.005,1.1e-4 0.01,2.4e-4 0.0149,2.7e-4 0.0291,2.6e-4 0.0581,2.3e-4 0.0871,2.4e-4 0.01,1e-5 0.0307,-2e-5 0.0417,1.3e-4 0.002,2e-5 0.005,0.002 0.006,2e-4 10e-4,-0.002 5.3e-4,-0.005 -0.001,-0.006 -0.008,-0.002 -0.0161,2e-5 -0.0242,-2e-5 -0.0102,-7e-5 -0.0203,-2e-4 -0.0305,-2.7e-4 -0.0249,-2.6e-4 -0.0498,-7.9e-4 -0.0747,-10e-4 -0.004,-4e-5 -0.007,-8e-5 -0.0107,-8e-5 -8e-4,0 -0.002,-8e-4 -0.002,7e-5 -5.3e-4,0.002 7.9e-4,0.004 10e-4,0.006 0.0378,10e-4 0.0756,8e-4 0.11341,0.002 0.002,7.9e-4 0.002,-0.005 5.3e-4,-0.006 -0.005,-0.002 -0.0116,-1e-5 -0.0173,-5e-5 -0.0181,-1.1e-4 -0.0362,-2.6e-4 -0.0543,-5.2e-4 -0.002,-0.007 -0.0123,0.005 -0.009,0.006 0.005,0.002 0.0111,-5.3e-4 0.0165,8e-5 0.0297,0.003 0.0261,0.006 0.0563,0.0114 0.008,0.001 0.0156,0.001 0.0234,0.002 0.0207,-5.3e-4 0.0113,2.7e-4 0.0282,-0.002 0,0 0.008,-0.006 0.008,-0.006 v 0 c -0.017,0.003 -0.008,0.002 -0.0283,0.002 -0.0368,-0.003 -0.0113,1.9e-4 -0.0525,-0.008 -0.0158,-0.003 -0.0426,-0.0115 -0.0578,5.3e-4 -0.002,10e-4 0.005,-4e-5 0.007,-5e-5 0.0181,1.5e-4 0.0363,2.6e-4 0.0544,5.3e-4 0.006,6e-5 0.0115,0.001 0.0172,1.8e-4 0.0227,-0.004 0.0217,-0.004 0.0158,-0.006 -0.0378,-2.7e-4 -0.0756,-2.7e-4 -0.1134,-0.001 -0.006,0.002 -0.0118,0.004 -0.0177,0.006 -7.9e-4,2.7e-4 0.002,-2.2e-4 0.003,-2.4e-4 0.004,-7e-5 0.007,-5e-5 0.0109,-3e-5 0.025,1.2e-4 0.0499,8e-4 0.0749,0.001 0.0101,1.3e-4 0.0202,2.6e-4 0.0303,2.6e-4 0.0184,2.2e-4 0.0257,0.003 0.0418,-0.006 0.002,-0.001 -0.004,-7e-5 -0.006,-8e-5 -0.008,-2e-5 -0.0376,5e-5 -0.0419,6e-5 -0.0216,0 -0.0399,5e-5 -0.0616,-1.2e-4 -0.008,-6e-5 -0.0169,-1.7e-4 -0.0253,-2.6e-4 -0.005,-9e-5 -0.01,-2.5e-4 -0.0148,-2.7e-4 -0.002,-7e-5 -0.005,-0.001 -0.007,-2.5e-4 -0.003,10e-4 -0.006,0.004 -0.009,0.006 0.0249,5.3e-4 0.0497,10e-4 0.0746,0.002 0.0175,2.7e-4 0.01,0.002 0.0281,-0.006 2.3e-4,-1e-4 -5.3e-4,0 -8e-4,0 -0.007,-3e-5 -0.0142,-1e-4 -0.0212,-1.8e-4 -0.0195,-2.6e-4 -0.0391,-7.9e-4 -0.0586,-0.001 -0.014,-5.3e-4 -0.0281,-10e-4 -0.0421,-0.002 0,0 -0.008,0.006 -0.008,0.006 z"
       id="path1583"
       style="fill:#ffffff;fill-opacity:1;stroke-width:0.117512;stroke-linecap:round;stroke-dasharray:0.117512, 0.940096;paint-order:stroke fill markers" />
    <path
       d="m 199.85106,113.47729 c 0.0264,0.001 0.0528,0.002 0.0792,0.003 0.01,2.7e-4 0.0388,0.002 0.0498,0.002 0.004,4e-5 0.008,-1.8e-4 0.0114,-2.6e-4 0.008,-0.005 0.0194,-0.008 0.0241,-0.0163 0.002,-0.004 -0.009,-0.003 -0.0132,-0.003 -0.007,-10e-4 -0.0141,-10e-4 -0.0211,-0.002 -0.0269,-0.002 -0.0539,-0.004 -0.0809,-0.006 -0.007,-5.3e-4 -0.0142,-0.001 -0.0213,-0.002 -0.005,-2.6e-4 -0.009,-7.9e-4 -0.0139,-0.001 -0.001,-6e-5 -0.003,-0.001 -0.003,1e-5 -0.004,0.006 -0.0131,0.0139 -0.008,0.0191 0.006,0.007 0.019,0.002 0.0286,0.003 0.0125,0.001 0.0251,0.002 0.0376,0.004 0.0383,0.003 0.0765,0.006 0.11486,0.008 0.007,2.6e-4 0.0138,5.3e-4 0.0207,5.3e-4 0.002,0 0.004,7.9e-4 0.006,-5.3e-4 0.006,-0.005 0.01,-0.0124 0.0144,-0.0186 -0.008,-8e-4 -0.0153,-0.002 -0.0229,-0.002 -0.0205,-0.002 -0.0545,-0.004 -0.0742,-0.005 -0.0371,-0.002 -0.0742,-0.004 -0.11124,-0.007 -0.007,-5.3e-4 -0.0144,-10e-4 -0.0216,-0.002 -0.007,-5.3e-4 -0.0367,-0.006 -0.0293,0.0161 0.003,0.008 0.017,7.9e-4 0.0255,0.001 0.056,0.003 0.0237,0.001 0.0846,0.005 0.0287,0.001 0.0543,0.003 0.0828,0.004 0.008,5.3e-4 0.0174,0.004 0.0255,0.001 0.009,-0.003 0.0232,-0.007 0.0219,-0.0165 -0.001,-0.008 -0.0162,-8e-5 -0.0243,-1.7e-4 -0.0152,-1.7e-4 -0.0305,-5.3e-4 -0.0457,-5.3e-4 -0.0464,-2.7e-4 -0.0927,-0.002 -0.13913,-0.002 -0.008,5e-5 -0.0153,1.7e-4 -0.0229,5.3e-4 -0.002,1e-4 -0.004,-5.3e-4 -0.006,10e-4 -0.005,0.006 -0.007,0.0125 -0.011,0.0188 0.0402,0.003 0.0804,0.005 0.12057,0.006 0.0113,5.3e-4 0.0226,8e-4 0.0339,10e-4 0.006,2e-4 0.0124,0.003 0.0175,5.3e-4 0.006,-0.003 0.008,-0.0115 0.0124,-0.0173 -0.0366,-0.001 -0.0732,-0.003 -0.10986,-0.004 -0.009,-2.4e-4 -0.0175,-5.3e-4 -0.0262,-5.3e-4 -0.003,-2e-5 -0.007,-0.002 -0.0101,2.6e-4 -0.006,0.005 -0.0102,0.012 -0.0153,0.018 0.0408,0.002 0.0816,0.004 0.12248,0.005 0.0247,7.9e-4 0.0485,0.002 0.0732,0.001 0.006,-1e-5 0.0112,-2.6e-4 0.0168,-5.3e-4 0.008,-0.006 0.0211,-0.007 0.0233,-0.0168 0.001,-0.006 -0.0122,-0.003 -0.0185,-0.004 -0.0113,-0.001 -0.0228,-0.002 -0.0341,-0.002 -0.0334,-0.002 -0.0668,-0.004 -0.10023,-0.006 -0.008,-0.0101 -0.0262,0.0113 -0.0194,0.0163 0.009,0.006 0.0221,5.3e-4 0.0332,7.9e-4 0.023,5.3e-4 0.0618,0.002 0.0848,0.002 0.0106,2e-4 0.0212,2.6e-4 0.0318,5.3e-4 0.0103,0.0122 0.0251,-0.0144 0.0177,-0.0186 -0.0117,-0.007 -0.0268,-0.002 -0.0403,-0.002 -0.0706,-0.003 -0.0353,-0.002 -0.10579,-0.005 0,0 -0.0207,0.0149 -0.0207,0.0149 v 0 c 0.027,0.001 0.078,0.004 0.10508,0.005 0.0425,0.003 0.0388,0.009 0.0798,-0.0116 0.004,-0.002 -0.009,8e-4 -0.014,0.001 -0.0382,0 -0.0322,2.6e-4 -0.0745,-0.001 -0.014,-5.3e-4 -0.0281,-10e-4 -0.0421,-0.002 -0.0107,-5.3e-4 -0.0217,-0.004 -0.0322,-0.002 -0.0132,0.003 -0.0258,0.009 -0.0372,0.0158 -0.003,0.002 0.008,1.2e-4 0.0118,1.8e-4 0.0335,10e-4 0.0671,0.003 0.10056,0.006 0.0111,8e-4 0.0221,0.002 0.0332,0.003 0.005,5.3e-4 0.0109,0.003 0.016,10e-4 0.009,-0.003 0.0163,-0.009 0.0244,-0.0136 -0.006,2.6e-4 -0.0116,7.9e-4 -0.0175,0.001 -0.0237,5.2e-4 -0.0505,-5e-5 -0.0739,-8e-4 -0.0401,-0.001 -0.0802,-0.003 -0.1202,-0.007 -0.0103,0.005 -0.0214,0.009 -0.0308,0.015 -0.003,0.002 0.007,-0.001 0.0108,-0.001 0.009,-2.5e-4 0.0178,-10e-5 0.0268,6e-5 0.0361,8e-4 0.0723,0.002 0.10833,0.005 0.011,-0.005 0.0246,-0.007 0.0331,-0.0154 0.004,-0.004 -0.0122,2.5e-4 -0.0183,1.7e-4 -0.0115,-1.5e-4 -0.0229,-5.3e-4 -0.0344,-7.9e-4 -0.0396,-10e-4 -0.0792,-0.004 -0.11868,-0.007 -0.0116,0.005 -0.0232,0.01 -0.0347,0.0148 -0.002,7.9e-4 0.004,-0.002 0.006,-0.002 0.008,-7.9e-4 0.0158,-0.001 0.0237,-0.001 0.0465,-0.001 0.093,7.9e-4 0.13942,0.001 0.0149,5.3e-4 0.0297,7.9e-4 0.0446,10e-4 0.006,2.3e-4 0.05,0.007 0.0468,-0.0153 -0.001,-0.009 -0.0174,-5.3e-4 -0.0261,-8e-4 -0.0286,-0.001 -0.0544,-0.003 -0.0832,-0.004 -0.0376,-0.002 -0.0475,-0.003 -0.0835,-0.005 -0.025,-0.002 -0.0299,-0.007 -0.0514,0.0139 -0.008,0.008 0.0609,-0.0142 0.0328,0.002 0.0373,0.002 0.0745,0.004 0.1117,0.006 0.0213,10e-4 0.0514,0.003 0.0731,0.005 0.007,8e-4 0.0147,0.002 0.022,0.003 0.0106,-0.005 0.0214,-0.009 0.0318,-0.0147 0.002,-10e-4 -0.004,0.001 -0.006,0.001 -0.007,2.7e-4 -0.0142,2.7e-4 -0.0213,1e-4 -0.0384,-0.001 -0.0767,-0.005 -0.11503,-0.008 -0.0124,-0.001 -0.0248,-0.002 -0.0371,-0.004 -0.009,-0.001 -0.0186,-0.005 -0.0278,-0.004 -0.0132,0.002 -0.0251,0.009 -0.0375,0.014 -0.001,5.3e-4 0.002,-7.9e-4 0.004,-7.9e-4 0.005,-4e-5 0.0342,0.002 0.0359,0.002 0.0269,0.002 0.0538,0.004 0.0806,0.006 0.007,8e-4 0.0137,0.002 0.0206,0.002 0.004,2.7e-4 0.007,0.002 0.0106,5.3e-4 0.009,-0.003 0.0162,-0.009 0.0243,-0.0136 -0.004,2.7e-4 -0.008,7.9e-4 -0.0119,7.9e-4 -0.0102,1.3e-4 -0.0413,-0.001 -0.0502,-0.001 -0.026,-10e-4 -0.052,-0.002 -0.078,-0.004 0,0 -0.0231,0.0165 -0.0231,0.0165 z"
       id="path1585"
       style="fill:#ffffff;fill-opacity:1;stroke-width:0.117512;stroke-linecap:round;stroke-dasharray:0.117512, 0.940096;paint-order:stroke fill markers" />
    <path
       d="m 199.77891,113.45075 c 0.0202,0.006 0.0413,0.009 0.0621,0.0113 0.0191,0.002 0.0382,0.004 0.0574,0.007 0.007,0.001 0.0142,0.002 0.0212,0.003 0.0393,0.007 -0.0431,0.0719 0.0802,-0.0551 0.004,-0.005 -0.0126,5.3e-4 -0.0189,5.3e-4 -0.0205,-1.1e-4 -0.0357,-10e-4 -0.0562,-0.002 -0.008,-5.3e-4 -0.0168,-0.001 -0.0252,-0.002 -0.007,-5.3e-4 -0.0223,-0.002 -0.0304,-0.003 -0.002,-1.7e-4 -0.003,-0.002 -0.005,-5.3e-4 -0.0879,0.0599 -0.11089,0.0536 -0.0658,0.0597 0.006,5.3e-4 0.012,7.9e-4 0.018,0.001 0.006,5.3e-4 0.0129,8e-4 0.0193,10e-4 0.013,0.001 0.0259,0.002 0.0389,0.003 0,0 0.0792,-0.0585 0.0792,-0.0585 v 0 c -0.012,0.002 -0.007,0.002 -0.0224,0.001 -0.0179,-7.9e-4 -0.0357,-0.002 -0.0534,-0.004 -0.0433,-0.004 -0.0112,-0.003 -0.0938,0.0552 -0.002,0.001 0.004,-0.001 0.006,-0.001 0.004,-1.9e-4 0.009,6e-5 0.013,1.9e-4 0.0121,2.7e-4 0.0345,0.002 0.0456,0.002 0.0229,0.001 0.0319,0.002 0.0544,0.004 0.006,5.3e-4 0.0121,0.004 0.0172,0.002 0.0305,-0.0165 0.0589,-0.0367 0.0865,-0.0577 0.008,-0.006 -0.0665,0.0109 -0.0316,-0.003 -0.0328,-0.003 -0.0659,-0.007 -0.098,-0.0144 -0.008,-0.002 -0.009,-0.002 -0.015,-0.005 0,0 -0.0831,0.0556 -0.0831,0.0556 z"
       id="path1587"
       style="fill:#ffffff;fill-opacity:1;stroke-width:0.117512;stroke-linecap:round;stroke-dasharray:0.117512, 0.940096;paint-order:stroke fill markers" />
    <path
       d="m 199.76103,113.462 c 0.004,-7e-5 0.009,0 0.0129,2e-5 0.005,3e-5 0.01,9e-5 0.0145,1.4e-4 0.004,8e-5 0.008,3e-5 0.0121,1.5e-4 0.0336,0.004 5.3e-4,2e-4 0.0812,-0.0587 2.7e-4,-2.1e-4 -5.3e-4,5.3e-4 -0.001,5.3e-4 -7.9e-4,3e-5 -0.002,-2.7e-4 -0.002,-5.3e-4 -0.004,-5.3e-4 -0.003,-5.3e-4 -0.007,-7.9e-4 -0.009,-0.001 -0.0171,-0.002 -0.0257,-0.003 -0.005,-5.3e-4 -0.0101,-5.3e-4 -0.0151,-7.9e-4 -0.002,-4e-5 -0.002,-1.6e-4 -0.004,2.3e-4 -2.6e-4,5e-5 -7.9e-4,-6e-5 -7.9e-4,1.8e-4 7.9e-4,0.002 0.005,0.004 0.003,0.005 -0.0675,0.049 -0.11495,0.0621 -0.0801,0.0523 0.01,-0.002 0.0194,-0.002 0.0291,-0.003 0.006,-7.9e-4 0.0112,-7.9e-4 0.0168,-0.002 0.004,-0.001 0.008,-0.001 0.012,-0.002 0.004,-1.6e-4 0.008,-1.2e-4 0.0122,-8e-5 0.005,5e-5 0.0101,5e-5 0.0152,9e-5 0.005,4e-5 0.0106,1.4e-4 0.0159,1.7e-4 0.007,0 0.0137,4e-5 0.0206,1.1e-4 0.006,2.7e-4 0.0124,-7.9e-4 0.0185,-0.001 0.008,-5.3e-4 0.0169,-5.3e-4 0.0253,-5.3e-4 0.008,1.2e-4 0.016,2.6e-4 0.024,-2.5e-4 0.005,-5.3e-4 0.0104,-0.001 0.0157,-0.001 0.006,-1.7e-4 0.0118,-1.2e-4 0.0176,-6e-5 0.007,3e-5 0.0136,1.2e-4 0.0204,1.4e-4 0.009,1.3e-4 0.0188,1.2e-4 0.0282,-5.3e-4 0.009,-5.3e-4 0.0175,-7.9e-4 0.0262,-10e-4 0.0102,-2.2e-4 0.0203,-0.001 0.0305,-0.002 0.008,-2.3e-4 0.0169,-2.6e-4 0.0253,-1.9e-4 0.0362,7.9e-4 -0.007,0.0161 0.081,-0.0584 0.002,-0.002 -0.005,1.6e-4 -0.008,2e-4 -0.008,1.2e-4 -0.0151,1e-4 -0.0229,1.2e-4 -0.0288,1.2e-4 -0.0576,-5.3e-4 -0.0864,-5.3e-4 -0.0227,2.6e-4 -0.0454,7.9e-4 -0.0681,7.9e-4 -0.013,-6e-5 -0.0259,-9e-5 -0.0389,-2.6e-4 -0.007,-9e-5 -0.0141,-2.5e-4 -0.0211,-2.7e-4 -0.005,-7.9e-4 -0.009,8e-4 -0.0139,0.002 -0.003,7.9e-4 -0.006,0.001 -0.009,0.002 -0.008,0.002 -0.0158,0.003 -0.0239,0.004 -0.008,4e-5 -0.0169,5.3e-4 -0.0253,0.001 -0.007,5.3e-4 -0.0145,7.9e-4 -0.0217,7.9e-4 -0.0357,-7.9e-4 -0.002,-0.005 -0.0816,0.0586 -0.001,0.001 0.003,-4e-5 0.005,-1.1e-4 0.01,-2.6e-4 0.009,-5.3e-4 0.0196,-0.001 0.0198,-0.002 0.0395,-0.004 0.0592,-0.006 0.0118,-0.001 0.0237,-0.002 0.0356,-0.002 0.008,1e-5 0.0153,-7.9e-4 0.0229,-0.001 0.007,-2.7e-4 0.014,-2.7e-4 0.021,-2.7e-4 0.007,2.7e-4 0.0148,-1.5e-4 0.0222,-7.9e-4 -0.002,-0.003 0.006,10e-4 0.005,-1.9e-4 -0.002,-0.004 -0.01,-0.008 -0.006,-0.0107 0.063,-0.0478 0.11786,-0.0526 0.0721,-0.0469 -0.0198,0.002 -0.0396,0.004 -0.0595,0.005 -0.0161,0.001 -0.0322,0.002 -0.0482,0.004 -0.0139,10e-4 -0.0276,0.003 -0.0415,0.005 -0.008,7.9e-4 -0.0168,0.002 -0.0252,0.003 -0.007,0.001 -0.0132,0.001 -0.0197,0.002 -0.003,5.3e-4 -0.006,8e-4 -0.008,0.001 -8e-4,6e-5 -0.002,1e-4 -0.002,1.1e-4 -5.2e-4,1e-5 -10e-4,-5.2e-4 -10e-4,-4e-5 0.002,0.004 0.004,0.007 0.006,0.0101 -0.1431,0.084 -0.1112,0.0537 -0.0775,0.0476 0.0152,-0.003 0.0307,-0.004 0.0461,-0.006 0.0251,-0.002 0.0503,-0.003 0.0755,-0.003 0.0259,-1e-5 0.0516,0.003 0.0773,0.007 0.0225,0.003 0.045,0.005 0.0676,0.008 0.0119,0.001 0.0237,0.002 0.0356,0.003 0.008,8e-4 0.017,0.001 0.0255,0.002 0.002,1.9e-4 0.004,5.3e-4 0.006,7.9e-4 5.3e-4,8e-5 0.001,5.3e-4 0.002,2.7e-4 0.0253,-0.0186 0.0501,-0.0378 0.0752,-0.0567 -0.004,10e-4 -0.008,0.003 -0.0126,0.004 -0.006,0.001 -0.0118,0.002 -0.0177,0.004 -0.0149,0.003 -0.0286,0.005 -0.0438,0.006 -0.0174,0.002 -0.0263,0.003 -0.0435,0.004 -0.0147,10e-4 -0.0294,0.002 -0.0441,0.002 -0.003,7e-5 -0.006,1.3e-4 -0.008,1.3e-4 -10e-4,1e-5 -0.003,-7.9e-4 -0.004,-1e-4 -0.0274,0.0186 -0.0538,0.0386 -0.0807,0.0579 0.002,2.1e-4 0.005,5.3e-4 0.007,5.3e-4 0.006,3e-5 0.0118,-2.7e-4 0.0177,-5.3e-4 0.008,-1.6e-4 0.0168,-2.2e-4 0.0251,-2.6e-4 0.0313,-2.7e-4 0.0625,-7e-5 0.0938,5.2e-4 0.007,2.5e-4 0.028,8e-4 0.0367,0.002 5.3e-4,6e-5 0.001,0.001 0.001,8e-4 0.0245,-0.0188 0.0509,-0.0356 0.0725,-0.0576 0.004,-0.004 -0.0112,5.3e-4 -0.0167,7.9e-4 -0.008,2.6e-4 -0.0168,2.7e-4 -0.0251,5.3e-4 -0.0265,2.5e-4 -0.053,10e-5 -0.0795,-2.6e-4 -0.006,-1.2e-4 -0.013,-2.5e-4 -0.0195,-5.3e-4 -0.0133,-2.7e-4 -0.009,0.002 -0.0144,-0.002 -0.024,0.0196 -0.0511,0.0359 -0.0719,0.0589 -0.004,0.005 0.0124,7e-5 0.0186,1.6e-4 0.0367,5.3e-4 0.0733,0.002 0.10995,0.003 0.007,2e-4 0.0146,2.7e-4 0.0219,5.3e-4 0.054,0.001 -0.0109,-2.6e-4 0.0269,5.3e-4 0.002,3e-5 0.003,0.001 0.005,1.6e-4 0.0859,-0.0592 0.11164,-0.0534 0.0711,-0.0593 -0.0125,-5.3e-4 -0.0251,-5.3e-4 -0.0377,-0.001 -1.2e-4,0 -0.0123,-2.6e-4 -0.0148,-7.9e-4 -5.3e-4,-1e-4 -8e-4,-5.3e-4 -0.001,-7.9e-4 -0.0264,0.0196 -0.0533,0.0386 -0.0791,0.0589 -0.001,7.9e-4 0.002,2.6e-4 0.004,5.2e-4 0.001,1.5e-4 0.002,2.5e-4 0.003,2.7e-4 0.001,1e-4 0.002,7.9e-4 0.003,2.6e-4 0.0267,-0.019 0.0543,-0.037 0.0791,-0.0585 0.003,-0.003 -0.009,0.001 -0.0134,0.001 -0.008,2.7e-4 -0.0155,8e-4 -0.0233,0.001 -0.0103,5.3e-4 -0.0205,7.9e-4 -0.0308,10e-4 -0.0546,0.003 -0.10906,0.01 -0.16352,0.0149 -0.0102,0.001 -0.0205,0.002 -0.0307,0.003 -0.007,8e-4 -0.0145,0.001 -0.0218,0.002 -0.004,2.7e-4 -0.008,8e-4 -0.0119,8e-4 -8e-4,1e-5 -0.002,-0.001 -0.002,-5.3e-4 -0.0773,0.0635 -0.0993,0.0602 -0.0518,0.0592 0.006,-10e-5 0.0128,-2.1e-4 0.0192,-2.7e-4 0.005,-8e-5 0.0105,-1.2e-4 0.0158,-2.3e-4 0.003,-8e-5 0.007,-2.7e-4 0.0103,-2.7e-4 0.001,-1e-5 0.003,8e-4 0.004,1.6e-4 0.0832,-0.0616 0.10802,-0.0539 0.0644,-0.0619 -0.0189,-0.002 -0.0378,-0.003 -0.0567,-0.005 -0.005,-5.3e-4 -0.0106,-8e-4 -0.0158,-10e-4 -0.0115,-0.001 -0.008,2.7e-4 -0.0129,-0.002 -0.0823,0.0628 -0.10824,0.0574 -0.0661,0.0586 0.0185,5.3e-4 0.037,10e-4 0.0554,0.003 0.0147,0.0279 0.004,0.008 0.0747,-0.0572 0.003,-0.003 -0.009,5.3e-4 -0.0133,7.9e-4 -0.0168,0.001 -0.0336,0.002 -0.0504,0.003 -0.0104,8e-4 -0.0208,0.002 -0.031,0.004 -0.002,2.7e-4 -0.003,2.7e-4 -0.005,0.001 -0.0286,0.0176 -0.0587,0.0331 -0.0849,0.054 -0.003,0.002 0.004,0.005 0.007,0.008 0.004,0.001 0.008,0.003 0.0122,0.003 0.007,0.001 0.0268,0.003 0.0332,0.003 0.0138,0.001 0.0276,0.002 0.0414,0.003 0.0129,0.002 -0.012,-0.001 -0.003,-0.008 0.0245,-0.0188 0.0536,-0.0307 0.0797,-0.0472 0.003,-0.002 -0.006,0.002 -0.009,0.002 -0.007,0.002 -0.0116,0.002 -0.0185,0.003 -0.0372,0.006 -0.0331,0.004 -0.0933,0.0502 -0.004,0.003 0.005,0.008 0.009,0.0108 0.004,0.002 0.008,10e-4 0.0122,10e-4 0.002,9e-5 0.0284,5.3e-4 0.03,5.3e-4 0.003,7e-5 0.0157,2.7e-4 0.0202,5.3e-4 8e-4,5e-5 0.002,8e-4 0.002,5.3e-4 0.0262,-0.0191 0.0531,-0.0373 0.0776,-0.0586 0.003,-0.002 -0.007,1.9e-4 -0.0106,2.2e-4 -0.004,5e-5 -0.009,2e-5 -0.0132,2e-5 -0.003,0 -0.0172,2e-5 -0.0217,-7e-5 -0.001,-3e-5 -0.003,-0.001 -0.004,-2e-4 -0.0272,0.0186 -0.0549,0.0367 -0.0803,0.0577 -0.002,0.002 0.006,0.002 0.008,0.002 0.004,5.3e-4 0.008,2.7e-4 0.0123,5.3e-4 0.0151,2.6e-4 0.0302,2.6e-4 0.0453,2.7e-4 0.004,3e-5 0.008,6e-5 0.0114,1.2e-4 0.008,1.3e-4 0.005,-1.6e-4 0.01,5.3e-4 0.0261,-0.0195 0.0532,-0.0379 0.0785,-0.0587 0.002,-0.002 -0.005,0 -0.007,0 -0.006,-2e-5 -0.0113,-3e-5 -0.0174,-1.5e-4 -0.007,-1.5e-4 -0.005,0 -0.01,-5.3e-4 -0.0262,0.0195 -0.0533,0.0377 -0.0785,0.0585 -0.002,0.002 0.005,-2.7e-4 0.008,-5.3e-4 0.005,-2.7e-4 0.011,-5.3e-4 0.0165,-8e-4 0.0212,-7.9e-4 0.0425,-7.9e-4 0.0638,-7.9e-4 0.006,-4e-5 0.0111,-8e-5 0.0167,-1.2e-4 0.004,-3e-5 0.008,-8e-5 0.0126,-9e-5 0.002,0 0.005,-2e-5 0.007,8e-5 7.9e-4,3e-5 0.002,7.9e-4 0.002,2.6e-4 0.0827,-0.0602 0.11092,-0.0603 0.0733,-0.0589 -0.0457,0.002 -0.0166,-0.004 -0.0953,0.0586 -0.002,0.001 0.004,5.3e-4 0.007,5.3e-4 0.004,4e-5 0.009,-2.4e-4 0.0135,-2.6e-4 0.0169,-5.3e-4 0.0338,-8e-4 0.0507,-5.3e-4 0.004,2e-5 0.008,5e-5 0.0117,1.3e-4 0.007,1.3e-4 0.005,-2.6e-4 0.008,5.3e-4 0.0266,-0.0196 0.0535,-0.0387 0.0797,-0.0587 8e-4,-5.3e-4 -0.002,-1.7e-4 -0.003,-2.4e-4 -5.3e-4,-5e-5 -0.001,-5.3e-4 -0.002,-1.1e-4 -0.0263,0.0192 -0.0527,0.0382 -0.0782,0.0585 -0.001,10e-4 0.003,-1.2e-4 0.005,-1.5e-4 0.002,-4e-5 0.004,-5e-5 0.007,-7e-5 0.002,2e-5 0.004,10e-6 0.006,6e-5 0.0129,2.6e-4 -0.0106,0.001 -0.001,-0.006 0.0237,-0.0189 0.052,-0.0314 0.0759,-0.0501 0.004,-0.003 -0.01,0.001 -0.0145,0.002 -0.005,5.3e-4 -0.011,10e-4 -0.0164,0.002 -0.005,5.2e-4 -0.0105,7.9e-4 -0.0157,0.001 -0.003,2.4e-4 -0.0172,10e-4 -0.0218,10e-4 -0.001,4e-5 -0.002,-7.9e-4 -0.003,-7e-5 -0.081,0.062 -0.10467,0.0588 -0.0595,0.0593 0.0174,-10e-6 0.0349,1.7e-4 0.0523,8e-4 0.003,1.1e-4 0.007,2.2e-4 0.0102,5.2e-4 0.001,9e-5 0.003,0.001 0.004,5.3e-4 0.0257,-0.0187 0.0504,-0.0388 0.0756,-0.0583 -0.0117,0.001 -0.0235,0.002 -0.0353,0.002 -0.002,6e-5 -0.004,2.2e-4 -0.006,5e-5 -5.3e-4,-5e-5 -0.001,-10e-4 -0.002,-7.9e-4 -0.0263,0.0194 -0.0521,0.0397 -0.0781,0.0595 0.002,-0.002 0.005,0.002 0.007,8e-4 5.3e-4,-2.6e-4 -0.001,-10e-4 -8e-4,-10e-4 0.0263,-0.0193 0.0533,-0.0376 0.0796,-0.0569 0.001,-7.9e-4 -0.002,7.9e-4 -0.003,0.001 -10e-4,5.3e-4 -0.003,7.9e-4 -0.004,0.001 -0.0346,0.008 -0.0349,0.007 -0.0896,0.0508 -0.004,0.003 0.006,0.008 0.0107,0.01 0.003,10e-4 0.006,-5.3e-4 0.009,-8e-4 0.009,-0.001 0.0119,-0.002 0.0203,-0.003 0.003,-7.9e-4 0.006,-0.001 0.009,-0.002 0.039,-0.01 0.0631,-0.0293 0.1,-0.0594 0.003,-0.002 -0.006,-0.005 -0.008,-0.007 -0.009,-5.3e-4 -0.017,5.3e-4 -0.0255,0.001 -0.002,7e-5 -0.003,-5.3e-4 -0.005,7e-5 -5.3e-4,2.6e-4 0.002,10e-4 10e-4,0.002 -0.0253,0.019 -0.0515,0.0369 -0.0772,0.0554 0.0129,-0.006 0.027,-0.009 0.0408,-0.013 0.002,-5.3e-4 0.005,-8e-4 0.007,-0.002 0.0296,-0.0162 0.0586,-0.0333 0.0879,-0.05 -0.002,-0.003 -0.003,-0.008 -0.007,-0.0103 -0.004,-0.003 -0.0246,-0.003 -0.0274,-0.003 -0.0118,-2.7e-4 -0.0235,-8e-4 -0.0352,-10e-4 -0.036,-0.004 -0.0114,-0.002 -0.0893,0.0506 -0.002,10e-4 0.003,0.003 0.003,0.005 -1.2e-4,10e-4 -0.004,-0.002 -0.003,-0.002 0.0259,-0.0173 0.0533,-0.0321 0.0795,-0.0489 0.003,-0.002 -0.007,0.003 -0.01,0.004 -0.0243,0.007 -0.0494,0.012 -0.0743,0.0168 -0.007,0.001 -0.0137,0.003 -0.0205,0.004 -0.004,7.9e-4 -0.009,5.3e-4 -0.0126,0.003 -0.0303,0.0156 -0.0594,0.0332 -0.0891,0.0498 0.004,0.004 0.008,0.009 0.0133,0.0117 0.002,7.9e-4 0.0347,-2.7e-4 0.0351,-2.7e-4 0.0148,-5.2e-4 0.0296,-0.001 0.0443,-0.002 0.0374,-0.002 0.0308,-8e-4 0.0926,-0.0493 0.004,-0.003 -0.007,-0.008 -0.0111,-0.0106 -0.003,-0.002 -0.007,-2.6e-4 -0.0111,-2.6e-4 -0.002,-4e-5 -0.0242,-7e-5 -0.027,-8e-5 -0.003,1e-5 -0.006,1.1e-4 -0.009,1e-5 -0.0372,-0.001 0.0998,-0.1163 -0.0765,0.0589 -0.003,0.003 0.009,2.7e-4 0.0135,5.3e-4 0.0332,7.9e-4 2.4e-4,-1.4e-4 0.0323,7.9e-4 0.007,2.7e-4 0.0138,5.3e-4 0.0211,0.001 0.001,1.2e-4 0.004,0.002 0.004,5.3e-4 -7.9e-4,-0.003 -0.007,-0.005 -0.005,-0.007 0.0589,-0.0442 0.11366,-0.0601 0.0767,-0.0491 -0.002,5.3e-4 -0.008,0.002 -0.0103,0.002 -10e-4,1.4e-4 -0.002,-5.3e-4 -0.003,1.3e-4 -0.0269,0.0192 -0.0546,0.0373 -0.0797,0.0587 -0.002,0.002 0.005,0.002 0.008,0.003 0.005,7.9e-4 0.01,5.3e-4 0.0144,5.3e-4 0.006,1.6e-4 0.0111,2.6e-4 0.0166,5.3e-4 0.006,1.8e-4 0.0193,5.3e-4 0.0258,10e-4 0.001,1e-4 0.002,0.001 0.003,5.3e-4 0.0845,-0.061 0.108,-0.06 0.0643,-0.0576 -0.0193,0.001 -0.0386,0.002 -0.0579,0.003 -0.011,5.3e-4 -0.022,0.001 -0.033,0.001 -0.0263,0.0195 -0.0543,0.0369 -0.0789,0.0585 -0.003,0.002 0.007,0.002 0.0101,0.002 0.005,5.2e-4 0.0105,2.6e-4 0.0157,5.2e-4 0.0146,5.3e-4 0.0291,10e-4 0.0437,0.002 0.0167,0.002 -0.0115,-2.5e-4 -0.001,-0.008 0.0249,-0.0192 0.0544,-0.0315 0.0808,-0.0485 0.002,-0.001 -0.005,5.3e-4 -0.007,7.9e-4 -0.004,5.3e-4 -0.008,5.3e-4 -0.0124,8e-4 -0.0359,0.001 -0.008,-2.7e-4 -0.0829,0.0585 -0.001,10e-4 0.003,5.3e-4 0.005,7.9e-4 0.002,1.7e-4 0.003,1.3e-4 0.005,2.2e-4 10e-4,6e-5 0.002,7.9e-4 0.003,2.2e-4 5.3e-4,-5.3e-4 -8e-4,-10e-4 -0.001,-0.002 0.0261,-0.0188 0.0528,-0.0367 0.0783,-0.0563 0.002,-10e-4 -0.004,5.3e-4 -0.006,5.3e-4 -9e-5,0 -0.01,5.3e-4 -0.0105,5.3e-4 -8e-4,-1.1e-4 -0.001,-0.002 -0.002,-0.001 -0.026,0.0195 -0.0512,0.04 -0.0769,0.0599 0.012,8e-4 0.024,8e-4 0.036,0.001 0.007,2.4e-4 0.0141,2.6e-4 0.0211,0.001 0.0971,-0.0736 0.10652,-0.0596 0.0674,-0.0571 -0.0126,7.9e-4 -0.0253,7.9e-4 -0.038,5.3e-4 -0.0354,-0.003 -0.007,-0.001 -0.0819,0.0584 -0.002,10e-4 0.004,-2e-5 0.006,-3e-5 0.006,-10e-6 0.0112,2e-5 0.0168,2.7e-4 -0.0211,-0.0267 0.001,0.002 0.0772,-0.0582 0.002,-0.002 -0.005,5.3e-4 -0.008,8e-4 -0.004,2.6e-4 -0.007,5.2e-4 -0.011,7.9e-4 -0.01,5.3e-4 -0.0145,7.9e-4 -0.0243,10e-4 -0.004,7e-5 -0.007,1.6e-4 -0.0106,2.3e-4 -0.009,1.6e-4 -0.008,2e-5 -0.0172,2.6e-4 -0.0107,5.3e-4 -0.0214,0.001 -0.0321,0.002 -0.0292,0.002 -0.0584,10e-4 -0.0877,-9e-5 -0.015,-5.3e-4 -0.0299,-0.002 -0.0449,-0.002 -0.015,-8e-4 -0.03,-10e-4 -0.0449,-10e-4 -0.0132,-1.2e-4 -0.0264,-2.7e-4 -0.0395,-5.3e-4 -0.004,-9e-5 -0.008,-1.2e-4 -0.0127,-2.2e-4 -8e-4,-3e-5 -0.002,-4e-5 -0.003,-9e-5 -2.5e-4,-2e-5 -5.3e-4,-2.7e-4 -7.9e-4,-1.3e-4 -0.0257,0.0194 -0.0511,0.039 -0.0767,0.0586 0.0285,-0.001 0.0569,-0.002 0.0854,-0.002 0.009,-7e-5 0.0183,-2.7e-4 0.0275,-8e-4 0.002,-8e-5 0.003,-2.2e-4 0.005,-2.6e-4 7.9e-4,-2e-5 0.002,5.3e-4 0.002,6e-5 0.0268,-0.0192 0.053,-0.0392 0.0795,-0.0587 -0.002,-2.5e-4 -0.004,-5.3e-4 -0.006,-7.9e-4 -0.004,-2e-4 -0.008,-4e-5 -0.012,-1.5e-4 -0.005,-1.4e-4 -0.01,-2.7e-4 -0.0148,-5.3e-4 -0.0134,-5.3e-4 -0.0268,-0.002 -0.0402,-0.003 -0.0144,-0.001 -0.0289,-0.002 -0.0434,-0.002 -0.0425,-10e-4 -0.0103,-0.006 -0.0909,0.0583 -0.002,0.002 0.005,-2.7e-4 0.008,-5.3e-4 0.004,-2.3e-4 0.009,-5.3e-4 0.0134,-5.3e-4 0.0301,-0.001 0.0602,-0.002 0.0904,-0.002 0.006,1e-4 0.008,1e-5 0.0131,5.3e-4 0.001,8e-5 0.002,10e-4 0.003,2.6e-4 5.3e-4,-5.3e-4 -0.001,-0.001 -0.002,-0.002 -0.002,-8e-4 -0.008,-10e-4 -0.007,-0.002 0.0247,-0.0167 0.0514,-0.0303 0.0771,-0.0455 -0.0127,0.007 -0.0266,0.0118 -0.0403,0.0164 -0.004,0.001 -0.008,0.003 -0.0129,0.003 -0.0109,0.002 0.005,-0.001 -0.005,5.3e-4 -0.004,0.001 -0.008,0.002 -0.0122,0.002 -8e-4,3e-5 -0.002,10e-5 -0.002,9e-5 -8e-4,0 -0.002,-1.3e-4 -0.003,-1.2e-4 -0.003,4e-5 -0.005,8e-4 -0.008,0.001 -10e-4,1.1e-4 -0.002,1.6e-4 -0.003,2.3e-4 -0.006,8e-4 -0.0112,0.002 -0.0168,0.003 -0.007,10e-4 0.002,-2.6e-4 -0.005,8e-4 -8e-4,1.3e-4 -0.002,1.8e-4 -0.002,2.6e-4 -0.0291,0.0165 -0.0584,0.0325 -0.0872,0.0495 -0.001,5.3e-4 2.7e-4,0.005 2.7e-4,0.005 0.002,0.004 0.005,0.009 0.009,0.01 0.003,0.002 0.007,0.004 0.0111,0.004 0.004,5.3e-4 0.008,8e-4 0.0125,8e-4 0.004,4e-5 0.008,6e-5 0.0124,9e-5 0.004,3e-5 0.008,6e-5 0.0124,1e-4 0.002,-1.7e-4 0.005,2.2e-4 0.007,2.2e-4 0.002,-1e-5 0.005,-5.3e-4 0.007,-8e-4 0.005,-7.9e-4 0.009,-0.001 0.0141,-0.001 0.005,-7e-5 0.0109,-6e-5 0.0163,-1e-5 0.005,6e-5 0.0102,1.4e-4 0.0153,2e-4 0.004,5e-5 0.008,9e-5 0.0126,1.3e-4 8e-4,0 0.001,-3e-5 0.002,1e-5 7.9e-4,5e-5 0.002,2.3e-4 0.002,2.5e-4 0.003,7e-5 0.006,-7.9e-4 0.008,-10e-4 0.004,-7.9e-4 0.009,-7.9e-4 0.0133,-0.001 8e-4,0 0.002,-3e-5 0.003,-1e-5 0.001,2e-5 0.002,1.4e-4 0.003,1.4e-4 0.003,-2e-5 0.007,-8e-4 0.0102,-0.001 0.006,-8e-4 0.0113,-8e-4 0.017,-8e-4 0.005,-3e-5 0.0109,3e-5 0.0164,1e-4 0.005,5e-5 0.0108,9e-5 0.0162,1.5e-4 0.005,6e-5 0.009,1.1e-4 0.0138,1.6e-4 0.004,5e-5 0.009,6e-5 0.0134,1e-4 0.006,6e-5 0.0123,3e-5 0.0184,7e-5 0.007,9e-5 0.0139,1.5e-4 0.0208,2e-4 0.007,2e-5 0.0146,1e-4 0.0218,2.2e-4 0.005,1e-4 0.0103,1.2e-4 0.0154,1.8e-4 0.004,5e-5 0.009,1e-4 0.0134,1.4e-4 0.004,4e-5 0.008,8e-5 0.0124,1.1e-4 0.004,4e-5 0.008,8e-5 0.0124,1.1e-4 0.004,4e-5 0.008,8e-5 0.0124,1.1e-4 0.005,2e-5 0.009,6e-5 0.0139,1.1e-4 0.004,7e-5 0.008,3e-5 0.0124,1.5e-4 1.9e-4,3e-5 5.3e-4,1.8e-4 5.3e-4,7e-5 0.0268,-0.0196 0.0536,-0.0392 0.0804,-0.0588 -0.001,7e-5 -0.002,2.3e-4 -0.003,2.2e-4 -0.001,-2e-5 -0.003,-2e-4 -0.004,-2.7e-4 -0.002,-1.2e-4 -0.003,-2.6e-4 -0.005,-2.6e-4 -0.002,-1.3e-4 -0.003,-2.6e-4 -0.005,-2.7e-4 -0.007,-5.3e-4 -0.0148,-10e-4 -0.0222,-10e-4 -0.004,-1.7e-4 -0.009,-2.2e-4 -0.0132,-2.6e-4 -0.003,2.6e-4 -0.005,-5.3e-4 -0.008,-2.7e-4 -0.001,1.1e-4 -0.002,5.3e-4 -0.003,8e-4 -0.004,10e-4 -0.007,10e-4 -0.0112,10e-4 -0.0362,-4e-5 0.0545,-0.0435 -0.0827,0.0588 -5.2e-4,2.6e-4 0.001,-1e-5 0.002,-2e-5 0.005,-7e-5 7.9e-4,-4e-5 0.006,-5e-5 0.006,3e-5 0.0117,1.2e-4 0.0176,2e-4 0.004,5e-5 0.009,9e-5 0.013,1.3e-4 0.004,7e-5 0.008,2e-5 0.0118,1.4e-4 1.9e-4,3e-5 5.3e-4,1.8e-4 5.3e-4,7e-5 0.16545,-0.12036 0.11141,-0.0583 0.078,-0.0587 -0.001,-2e-5 -0.002,-1.4e-4 -0.003,-1.2e-4 -10e-4,3e-5 -0.004,2.7e-4 -0.006,5.3e-4 -0.005,5.3e-4 -0.0108,0.001 -0.0162,0.002 -0.004,7.9e-4 -0.009,10e-4 -0.013,10e-4 -8e-4,1e-5 -10e-4,8e-5 -0.002,4e-5 -7.9e-4,-5e-5 -0.002,-2.6e-4 -0.002,-2.7e-4 -0.002,-1.1e-4 -0.005,8e-4 -0.007,10e-4 -0.002,2.7e-4 -0.005,0.001 -0.007,8e-4 -0.005,-1.7e-4 5.3e-4,-5.3e-4 -0.004,-1.2e-4 -0.003,8e-4 -0.007,0.002 -0.0106,0.002 -0.004,2.7e-4 -0.008,2.6e-4 -0.0121,2.4e-4 -0.002,1.8e-4 -0.005,-2e-4 -0.007,-2.6e-4 -0.002,-6e-5 -0.004,5.3e-4 -0.006,7.9e-4 -0.004,8e-4 -0.008,0.001 -0.0118,0.001 -0.004,1e-4 -0.008,5e-5 -0.0123,2e-5 -0.002,1.6e-4 -0.005,-2.3e-4 -0.007,-2.3e-4 -0.003,0 -0.005,5.3e-4 -0.008,7.9e-4 -0.006,8e-4 -0.0115,0.001 -0.0173,0.001 -0.006,7e-5 -0.0118,-1e-5 -0.0177,-7e-5 -0.005,-5e-5 -0.0106,-1.1e-4 -0.0159,-1.8e-4 -0.004,-5e-5 -0.009,-1.2e-4 -0.0133,-1.3e-4 -0.005,-3e-5 -0.009,-8e-5 -0.014,-1.3e-4 -0.004,-6e-5 -0.009,-7e-5 -0.0132,-1e-4 -0.005,-6e-5 -0.01,-8e-5 -0.0147,-1.2e-4 -0.005,-5e-5 -0.009,-1e-4 -0.0136,-1.5e-4 -0.004,-4e-5 -0.008,-9e-5 -0.0127,-1e-4 -0.005,-4e-5 -0.0101,-8e-5 -0.0152,-10e-5 -0.006,-7e-5 -0.0124,-1e-4 -0.0186,-1e-4 -0.007,-2.1e-4 -0.0143,1.5e-4 -0.0215,-5.3e-4 -0.008,-7.9e-4 -0.0151,-0.001 -0.0226,-0.002 -0.007,-2.6e-4 -0.014,-2.7e-4 -0.021,-5.3e-4 -0.005,-7e-5 -0.01,-1.5e-4 -0.0147,-1.7e-4 -0.005,-4e-5 -0.01,-7e-5 -0.0146,-1.1e-4 -0.006,2e-5 -0.0125,-6e-5 -0.0187,-1.4e-4 -0.005,-7e-5 -0.009,-1.3e-4 -0.014,-1.8e-4 -0.004,-4e-5 -0.008,-8e-5 -0.0124,-1.1e-4 -0.0393,-5.3e-4 -0.003,-0.003 -0.0867,0.0586 0.007,2.1e-4 0.0136,-5.3e-4 0.0204,-10e-4 0.0107,-5.3e-4 0.0214,-0.002 0.0321,-0.002 0.007,-2.6e-4 0.0138,-5.3e-4 0.0207,-5.3e-4 0.005,-5e-5 0.0109,5e-5 0.0163,9e-5 0.005,6e-5 0.0107,1e-4 0.0161,1.7e-4 0.004,6e-5 0.009,1.1e-4 0.0134,1.5e-4 0.004,5e-5 0.009,7e-5 0.013,9e-5 0.005,4e-5 0.009,9e-5 0.0137,1.4e-4 0.004,4e-5 0.008,8e-5 0.0125,1.2e-4 0,0 0.004,3e-5 0.004,3e-5 5.3e-4,-2e-5 0.001,-2.1e-4 0.002,-2.1e-4 0.002,-3e-5 0.004,5.2e-4 0.006,0.001 0.006,10e-4 0.0119,10e-4 0.0179,10e-4 0.006,1.5e-4 0.0121,2e-4 0.0181,2.6e-4 0.005,7e-5 0.0102,9e-5 0.0153,1.5e-4 0.006,2e-5 0.0121,8e-5 0.0181,7e-5 0.008,-2.5e-4 0.0164,5.3e-4 0.0246,10e-4 0.008,5.3e-4 0.0151,0.001 0.0226,0.001 0.005,1.7e-4 0.009,2.3e-4 0.0141,2.6e-4 0.005,1e-5 0.0102,4e-5 0.0154,1e-4 0.005,2e-5 0.0102,9e-5 0.0152,1.4e-4 0.004,5e-5 0.009,9e-5 0.0128,1.3e-4 0.004,4e-5 0.008,8e-5 0.0124,1.1e-4 0.004,4e-5 0.008,8e-5 0.0124,1.1e-4 0.004,4e-5 0.008,8e-5 0.0124,1.1e-4 0.004,4e-5 0.008,7e-5 0.0124,1.1e-4 0.004,4e-5 0.008,7e-5 0.0124,1.1e-4 0.004,4e-5 0.008,7e-5 0.0124,1.1e-4 0.003,-2.6e-4 0.006,5.3e-4 0.008,2.7e-4 0.001,-1.1e-4 0.002,-5.3e-4 0.003,-8e-4 0.004,-0.001 0.007,-0.001 0.0112,-0.001 0.004,-10e-5 0.008,-5e-5 0.0123,-2e-5 0.004,4e-5 0.008,8e-5 0.0124,1.2e-4 7.9e-4,-0.001 0.003,0.001 0.004,7e-5 2.6e-4,-2.6e-4 -2.7e-4,-7.9e-4 -5.3e-4,-0.001 -0.002,-0.003 -0.008,-0.006 -0.005,-0.008 0.0253,-0.0187 0.10714,-0.0656 0.0813,-0.0478 -0.006,0.003 -0.0116,0.004 -0.0178,0.004 -0.005,5.3e-4 -0.01,0.002 -0.015,0.002 -0.005,5.3e-4 -0.009,2.6e-4 -0.0141,2.6e-4 -0.004,-3e-5 -0.008,-8e-5 -0.0127,-1.3e-4 -0.004,-4e-5 -0.008,-8e-5 -0.0124,-1.1e-4 -0.004,-4e-5 -0.008,-8e-5 -0.0124,-1.1e-4 -0.007,4e-5 -0.0136,0 -0.0204,-8e-5 -0.007,-7e-5 -0.0137,-1.2e-4 -0.0206,-2.1e-4 -0.006,-1.3e-4 -0.0113,-1.1e-4 -0.017,-1.5e-4 -0.008,4e-5 -0.015,-8e-5 -0.0225,-2e-4 -0.006,-8e-5 -0.0116,-1.3e-4 -0.0174,-1.7e-4 -0.006,-5e-5 -0.012,-9e-5 -0.0181,-1.6e-4 -0.006,-2e-5 -0.0124,-9e-5 -0.0186,-1.6e-4 -0.006,-5e-5 -0.0112,-1.3e-4 -0.0168,-1.5e-4 -0.006,-1e-5 -0.0116,-1.1e-4 -0.0174,-1.8e-4 -0.005,-6e-5 -0.01,-1e-4 -0.0146,-1.2e-4 -0.005,-5e-5 -0.0107,-9e-5 -0.016,-1.5e-4 -0.006,-2e-5 -0.0115,-7e-5 -0.0173,-1.3e-4 -0.006,-7e-5 -0.0115,-9e-5 -0.0172,-1.6e-4 -0.005,-2.6e-4 -0.01,2.4e-4 -0.0143,-1.8e-4 -0.005,-7.9e-4 -0.0102,-0.002 -0.0154,-0.002 -0.005,-8e-4 -0.0108,-0.002 -0.0163,-0.002 -0.002,-1.1e-4 -0.005,-5.3e-4 -0.007,-5.3e-4 -5.3e-4,10e-6 -0.001,1.5e-4 -0.002,1.4e-4 -0.001,-3e-5 -0.003,-2.7e-4 -0.004,-5.3e-4 -0.005,-10e-4 -0.01,-0.002 -0.0147,-0.002 -0.007,-2.1e-4 -0.0142,-2.5e-4 -0.0214,-2.6e-4 -0.007,-9e-5 -0.0141,-1.5e-4 -0.0212,-2.3e-4 -0.006,-4e-5 -0.0125,-1.4e-4 -0.0187,-1.8e-4 -0.005,-7e-5 -0.0108,-1.4e-4 -0.0161,-1.5e-4 -0.007,-10e-6 -0.014,-6e-5 -0.021,-1.5e-4 -0.006,-7e-5 -0.0129,-1.4e-4 -0.0193,-1.8e-4 -0.006,-8e-5 -0.0123,-1.2e-4 -0.0184,-1.8e-4 -0.005,-1e-4 -0.01,-6e-5 -0.0143,-2.1e-4 -0.034,-0.002 -0.002,-2.7e-4 -0.0812,0.0587 -5.3e-4,2.6e-4 10e-4,-3e-5 0.002,-4e-5 0.002,-3e-5 0.005,-2e-5 0.007,-1e-5 0.005,4e-5 0.0107,8e-5 0.0161,1.4e-4 0.005,8e-5 0.01,1.1e-4 0.0147,1.2e-4 0.006,6e-5 0.0124,6e-5 0.0186,1.3e-4 0.006,5e-5 0.0122,1.1e-4 0.0183,2e-4 0.005,6e-5 0.009,1.2e-4 0.0136,1.6e-4 0.005,6e-5 0.0108,2e-5 0.0162,6e-5 0.0102,-7e-5 0.0204,3e-5 0.0306,1.4e-4 0.0134,7e-5 0.0267,1e-4 0.0401,2.1e-4 0.0166,2.7e-4 0.0331,-7.9e-4 0.0497,-10e-4 0.0254,-5.2e-4 0.0507,-0.003 0.0761,-0.005 0.0115,-7.9e-4 0.0229,-10e-4 0.0344,-0.002 0.002,-6e-5 0.004,7.9e-4 0.005,-1.4e-4 0.0287,-0.0166 0.059,-0.0312 0.0849,-0.052 0.003,-0.003 -0.007,-0.005 -0.0109,-0.008 -0.004,-2.6e-4 -0.008,-5.2e-4 -0.0122,-7.9e-4 -0.0151,-0.001 -0.0302,-0.002 -0.0452,-0.004 -0.007,-10e-4 -0.0108,-0.003 -0.008,-10e-4 0.0349,0.014 0.007,5.3e-4 -0.0638,0.0465 -0.005,0.003 0.0109,-0.005 0.0165,-0.007 0.0162,-0.006 0.0329,-0.0118 0.0495,-0.017 2.6e-4,-1.1e-4 0.0138,-0.004 0.0162,-0.005 7.9e-4,-1.7e-4 0.002,1.5e-4 0.002,-2.6e-4 0.0265,-0.0196 0.0533,-0.039 0.0789,-0.0597 10e-4,-8e-4 -0.003,-8e-4 -0.004,-8e-4 -0.001,-3e-5 -0.003,2.7e-4 -0.004,5.3e-4 -1.5e-4,3e-5 -0.007,0.001 -0.008,0.001 -5.3e-4,2e-5 -0.001,-2.3e-4 -0.002,-2.7e-4 -0.0262,0.0198 -0.0537,0.0382 -0.0786,0.0596 -0.002,0.002 0.006,5.3e-4 0.008,8e-4 0.003,1e-4 0.007,-8e-5 0.0101,-1.2e-4 0.0306,0.001 -0.002,0.002 0.004,-0.003 0.023,-0.0179 0.0504,-0.0297 0.0724,-0.0488 0.006,-0.005 -0.0142,0.003 -0.0214,0.005 -0.0203,0.003 -0.0315,0.004 -0.0519,0.005 -0.008,0.0173 -0.0223,-0.008 -0.031,-0.002 -0.0242,0.0159 -0.0489,0.0322 -0.0682,0.0538 -0.006,0.007 0.0182,-0.006 0.0275,-0.008 0.0273,-0.006 0.0604,-0.0114 0.088,-0.016 0.0134,-0.002 0.0268,-0.004 0.0403,-0.006 0.0105,-0.002 0.021,-0.003 0.0315,-0.005 0.007,-0.001 0.0137,-0.002 0.0206,-0.004 0.002,-2.7e-4 0.004,-1.1e-4 0.006,-10e-4 0.0816,-0.0647 0.10356,-0.057 0.0541,-0.0637 -0.009,-2.7e-4 -0.0172,-8e-4 -0.0259,-10e-4 -0.0108,-2.2e-4 -0.0216,-1.4e-4 -0.0324,-1.9e-4 -0.0271,-1.3e-4 -0.033,-8e-5 -0.0591,-2.5e-4 -0.0233,-1.6e-4 -0.0146,9e-5 -0.0322,-8e-4 -0.0248,0.0193 -0.0524,0.0354 -0.0744,0.0578 -0.004,0.004 0.0125,-8e-4 0.0188,-10e-4 0.016,-7.9e-4 0.0399,-0.001 0.0558,-0.001 0.009,-2e-5 0.0175,-2e-5 0.0263,2.3e-4 0.007,2.1e-4 0.0142,8e-4 0.0213,0.001 0.004,7.9e-4 0.009,10e-4 0.0128,0.002 5.3e-4,1.7e-4 5.3e-4,0.001 0.001,0.002 0.0242,-0.0174 0.0497,-0.033 0.0725,-0.0522 0.005,-0.004 -0.0125,0.005 -0.019,0.007 -0.0187,0.005 -0.0401,0.009 -0.0592,0.0127 -0.0403,0.006 -0.0208,0.003 -0.0587,0.009 0,0 -0.0752,0.0563 -0.0752,0.0563 v 0 c 0.0387,-0.006 0.0188,-0.003 0.0596,-0.009 0.0315,-0.005 0.0278,-0.004 0.0575,-0.0102 0.006,-10e-4 0.0132,-5.3e-4 0.0186,-0.004 0.0307,-0.0186 0.0606,-0.0386 0.0885,-0.0612 0.002,-0.002 -0.003,-0.005 -0.006,-0.006 -0.005,-0.002 -0.01,-0.002 -0.0149,-0.002 -0.007,-2.6e-4 -0.0149,-7.9e-4 -0.0223,-7.9e-4 -0.001,-2e-5 -0.0551,-5e-5 -0.0552,-5e-5 -0.008,-6e-5 -0.0169,-1.5e-4 -0.0254,-2.7e-4 -0.006,-1.4e-4 -0.0118,-0.003 -0.0166,-7.9e-4 -0.0297,0.0169 -0.0563,0.0388 -0.0844,0.0582 0.021,-0.001 0.042,-0.002 0.063,-0.002 0.0216,-1.6e-4 0.041,-8e-5 0.0626,7.9e-4 0.008,2.7e-4 0.016,0.001 0.0241,0.002 0.0496,0.005 0.009,0.004 0.10119,-0.0541 0.002,-0.002 -0.004,0.005 -0.007,0.006 -0.007,0.003 -0.0148,0.004 -0.0222,0.005 -0.0214,0.004 -0.0533,0.009 -0.074,0.0124 -0.0149,0.002 -0.0298,0.005 -0.0447,0.007 -0.0135,0.002 -0.027,0.004 -0.0405,0.006 -0.009,10e-4 -0.0183,-1e-5 -0.0258,0.004 -0.0311,0.0184 -0.0609,0.0394 -0.0882,0.063 -0.009,0.008 0.0565,-0.005 0.0348,0.002 0.0296,-0.002 0.0221,-10e-4 0.0515,-0.004 0.007,-7.9e-4 0.0144,10e-4 0.0205,-0.002 0.0325,-0.0164 0.0645,-0.0343 0.094,-0.0556 0.003,-0.002 -0.002,-0.007 -0.004,-0.009 -0.003,-0.002 -0.006,-5.3e-4 -0.009,-8e-4 -0.003,-1e-5 -0.006,-1.2e-4 -0.009,-5e-5 -0.002,5e-5 -0.004,-7.9e-4 -0.006,5.3e-4 -0.028,0.0187 -0.0547,0.0393 -0.0823,0.0587 -5.3e-4,2.6e-4 5.3e-4,-10e-4 10e-4,-10e-4 5.3e-4,-2.7e-4 0.008,-0.001 0.008,-0.001 0.005,-7.9e-4 0.003,1.8e-4 0.006,-0.002 0.0271,-0.0198 0.0543,-0.0395 0.0814,-0.0592 7.9e-4,-5.3e-4 -0.002,0.001 -0.002,0.002 -0.006,0.002 -0.0121,0.003 -0.0177,0.006 -0.0168,0.005 -0.0337,0.0108 -0.0504,0.0168 -0.005,0.002 -0.011,0.003 -0.016,0.006 -0.0323,0.0173 -0.0652,0.0337 -0.0957,0.054 -0.003,0.002 -0.001,0.007 -0.002,0.0113 0.002,0.002 0.002,0.004 0.004,0.005 0.003,0.001 0.006,0.001 0.009,0.002 0.005,5.3e-4 0.009,0.001 0.0139,0.001 0.014,0.001 0.0281,0.002 0.042,0.004 0.0102,-0.0378 -0.001,-0.002 0.0862,-0.0566 0.002,-0.001 -0.004,8e-4 -0.006,10e-4 -0.003,2.7e-4 -0.006,5.3e-4 -0.01,7.9e-4 -0.009,5.3e-4 -0.0173,10e-4 -0.0259,0.002 -0.0249,0.002 -0.0498,0.004 -0.0748,0.005 -0.009,1.2e-4 -0.0175,2.6e-4 -0.0262,5.3e-4 -0.005,1.7e-4 -0.0103,5.2e-4 -0.0155,5.2e-4 -0.002,4e-5 -0.005,-4e-5 -0.007,-7e-5 -0.0132,-1.2e-4 -0.0265,-2.6e-4 -0.0397,-5.3e-4 -0.0101,-6e-5 -0.0201,-1.4e-4 -0.0302,-2.6e-4 -0.005,-6e-5 -0.0106,-1.9e-4 -0.016,-2.3e-4 -0.005,-3e-5 -0.009,-6e-5 -0.0137,-7e-5 -0.006,-3e-5 -0.0123,-7e-5 -0.0184,-1.3e-4 -0.006,-4e-5 -0.0123,-1.5e-4 -0.0184,-2e-4 -0.005,-7e-5 -0.01,-1.2e-4 -0.0147,-1.4e-4 -0.005,-3e-5 -0.0107,-9e-5 -0.0161,-1.4e-4 -0.002,-3e-5 -0.005,-6e-5 -0.007,-1.3e-4 -5.3e-4,-2e-5 -0.001,-2.7e-4 -0.001,-7e-5 -0.0837,0.059 -0.11527,0.06 -0.0807,0.0587 0.005,-6e-5 0.01,5e-5 0.0145,4e-5 0.006,4e-5 0.0123,1.1e-4 0.0185,1.4e-4 0.006,8e-5 0.0129,1.2e-4 0.0194,1.7e-4 0.007,2e-5 0.0139,1e-4 0.0209,2.2e-4 0.005,8e-5 0.0108,1e-4 0.0162,1.3e-4 0.006,7e-5 0.0125,8e-5 0.0188,1.5e-4 0.007,4e-5 0.0142,9e-5 0.0213,1.2e-4 0.007,1e-4 0.014,1.5e-4 0.021,2.6e-4 0.005,6e-5 0.009,2e-5 0.0138,5.3e-4 0.002,2.6e-4 0.002,2.6e-4 0.004,7.9e-4 7.9e-4,2.2e-4 0.002,5.3e-4 0.002,8e-4 0.002,2.6e-4 0.005,-2.6e-4 0.007,8e-5 0.005,1.7e-4 0.0108,5.3e-4 0.016,0.002 0.001,2.1e-4 0.002,5.2e-4 0.003,5.2e-4 8e-4,1.2e-4 0.002,5e-5 0.003,8e-5 0.003,1.1e-4 0.006,2.7e-4 0.009,0.001 8e-4,1.7e-4 0.002,2.6e-4 0.003,5.3e-4 7.9e-4,2e-4 0.002,5.3e-4 0.003,7.9e-4 7.9e-4,1.1e-4 0.002,1e-5 0.002,2e-5 0.003,1e-5 0.005,2e-5 0.008,3e-5 0.006,3e-5 0.0115,1.2e-4 0.0172,1.5e-4 0.006,4e-5 0.0115,9e-5 0.0172,1.7e-4 0.005,3e-5 0.0107,9e-5 0.016,1.4e-4 0.005,6e-5 0.01,1.1e-4 0.0146,1.4e-4 0.006,2e-5 0.0117,3e-5 0.0175,1.2e-4 0.006,8e-5 0.0112,1e-4 0.0168,1.5e-4 0.006,3e-5 0.0124,8e-5 0.0187,1.7e-4 0.006,3e-5 0.012,1e-4 0.018,1.5e-4 0.006,7e-5 0.0116,1.2e-4 0.0174,1.4e-4 0.008,1e-5 0.015,3e-5 0.0225,2e-4 0.006,6e-5 0.0113,1.8e-4 0.017,1.5e-4 0.007,3e-5 0.0138,1.1e-4 0.0207,1.5e-4 0.007,5e-5 0.0134,1.2e-4 0.0201,2.7e-4 0.004,3e-5 0.008,7e-5 0.0124,1e-4 0.004,4e-5 0.008,8e-5 0.0124,1.1e-4 0.004,4e-5 0.009,8e-5 0.0128,1.3e-4 0.005,5e-5 0.01,9e-5 0.0145,1.6e-4 0.005,-7e-5 0.0105,-2.6e-4 0.0156,-0.002 0.001,-2.1e-4 0.002,-5.3e-4 0.003,-5.3e-4 0.001,-1.2e-4 0.002,-4e-5 0.003,-9e-5 0.004,-2.1e-4 0.009,-8e-4 0.0128,-0.002 0.0355,-0.005 0.0238,-0.003 0.0898,-0.0516 0.003,-0.002 -0.002,-0.006 -0.004,-0.01 -2.7e-4,-8e-4 -0.001,-10e-4 -0.002,-0.002 -0.001,-5.3e-4 -0.003,7.9e-4 -0.004,0 -0.004,-3e-5 -0.008,-7e-5 -0.0124,-1.2e-4 -0.004,-4e-5 -0.008,-9e-5 -0.0124,-1.5e-4 -0.004,-6e-5 -0.008,-1.7e-4 -0.012,6e-5 -0.001,1.3e-4 -0.002,1.7e-4 -0.004,5.3e-4 -5.3e-4,1.5e-4 -0.001,2.6e-4 -0.002,5.2e-4 -5.3e-4,2.3e-4 -7.9e-4,8e-4 -0.001,8e-4 -10e-4,2.6e-4 -0.003,-2.7e-4 -0.004,-4e-5 -0.004,-4e-5 -0.008,-7e-5 -0.0124,-1.1e-4 -0.004,-3e-5 -0.008,-7e-5 -0.0124,-1.1e-4 -0.004,-3e-5 -0.008,-7e-5 -0.0124,-1.1e-4 -0.004,-3e-5 -0.008,-7e-5 -0.0124,-1e-4 -0.004,-4e-5 -0.008,-8e-5 -0.0124,-1.2e-4 -0.004,-3e-5 -0.008,-7e-5 -0.0124,-10e-5 -0.004,-4e-5 -0.009,-7e-5 -0.0128,-1e-4 -0.005,-3e-5 -0.0102,-5e-5 -0.0153,-1.2e-4 -0.005,-3e-5 -0.0102,-8e-5 -0.0153,-1.6e-4 -0.005,-2e-5 -0.009,-2e-5 -0.0142,-4e-5 -0.008,-6e-5 -0.015,-1.9e-4 -0.0225,-7.9e-4 -0.004,-2.7e-4 -0.009,-5.3e-4 -0.0131,-0.001 -0.001,-1.7e-4 -0.003,-5.3e-4 -0.004,-5.3e-4 -0.003,-1.9e-4 -0.005,1e-4 -0.008,-8e-5 -0.006,-1.2e-4 -0.0119,-1.6e-4 -0.0179,-2.4e-4 -0.005,-4e-5 -0.0102,-1e-4 -0.0153,-1.1e-4 -0.006,-2e-5 -0.0121,-6e-5 -0.0181,-1.2e-4 -0.006,-6e-5 -0.0113,-1.3e-4 -0.0169,-5.3e-4 -0.002,-2.6e-4 -0.004,-5.2e-4 -0.006,-0.001 -7.9e-4,-2.3e-4 -0.002,-5.3e-4 -0.002,-8e-4 -0.001,-2.3e-4 -0.003,2e-4 -0.004,-3e-5 -0.004,-4e-5 -0.008,-8e-5 -0.0126,-1.1e-4 -0.005,-3e-5 -0.009,-6e-5 -0.0138,-10e-5 -0.004,-5e-5 -0.009,-1.2e-4 -0.013,-1.4e-4 -0.005,-3e-5 -0.009,-6e-5 -0.0135,-9e-5 -0.005,-3e-5 -0.0107,-8e-5 -0.0161,-1.3e-4 -0.005,-7e-5 -0.0109,-9e-5 -0.0164,-2e-4 -0.007,-1e-5 -0.0143,1e-4 -0.0215,5.3e-4 -0.005,2.2e-4 -0.0109,5.3e-4 -0.0163,8e-4 -0.004,2.6e-4 -0.007,7.9e-4 -0.0107,0.001 -0.002,1e-4 -0.003,8e-5 -0.005,1.2e-4 -0.003,1e-4 -0.006,1.6e-4 -0.009,5.2e-4 -0.001,10e-5 -0.002,2.4e-4 -0.003,2.7e-4 -0.001,1.7e-4 -0.002,5.3e-4 -0.003,5.3e-4 -5.3e-4,3e-5 -0.004,-1.2e-4 -0.004,-1.5e-4 -0.10222,0.0733 -0.11387,0.0582 -0.075,0.0587 0.004,3e-5 0.008,7e-5 0.0124,1e-4 0.005,4e-5 0.009,6e-5 0.0141,8e-5 0.006,2e-5 0.0124,5e-5 0.0186,1.8e-4 0.005,5e-5 0.01,1e-4 0.0146,1.4e-4 0.005,7e-5 0.01,6e-5 0.0148,7e-5 0.007,2e-5 0.0139,4e-5 0.0209,1.9e-4 0.007,1.7e-4 0.0149,5.3e-4 0.0222,0.001 0.002,2.6e-4 0.005,7.9e-4 0.007,10e-4 0.001,1e-4 0.002,1e-5 0.003,2e-5 0.004,1e-5 0.008,5e-5 0.0113,9e-5 0.006,1e-4 0.0123,1.9e-4 0.0185,2.3e-4 0.005,6e-5 0.0101,1.1e-4 0.0151,1.6e-4 0.004,7e-5 0.008,9e-5 0.0127,1.3e-4 0.005,3e-5 0.009,6e-5 0.0136,9e-5 0.005,4e-5 0.01,1.1e-4 0.0147,1.4e-4 0.004,5e-5 0.009,1.1e-4 0.0132,1.3e-4 0.005,3e-5 0.009,6e-5 0.014,1.1e-4 0.004,7e-5 0.009,8e-5 0.0133,1.1e-4 0.005,3e-5 0.0106,7e-5 0.0159,1.3e-4 0.006,5e-5 0.0119,9e-5 0.0179,1.6e-4 0.006,5e-5 0.0119,1.1e-4 0.0178,-2.2e-4 10e-4,-9e-5 0.004,-2.7e-4 0.005,-5.3e-4 7.9e-4,-1.1e-4 0.002,-2.7e-4 0.002,-5.3e-4 5.3e-4,-2.1e-4 0.001,-5.3e-4 0.002,-5.3e-4 1e-5,0 0.004,4e-5 0.004,4e-5 0.004,5e-5 0.008,1e-4 0.0124,1.6e-4 0.004,5e-5 0.008,1.5e-4 0.0126,-1.6e-4 0.002,-2.2e-4 0.004,-5.3e-4 0.006,-10e-4 5.3e-4,-2e-4 0.001,-5.3e-4 0.002,-7.9e-4 0.001,-2.3e-4 0.003,2.6e-4 0.004,6e-5 0.004,5e-5 0.008,1.2e-4 0.0124,1.7e-4 0.004,4e-5 0.008,2.1e-4 0.0115,-5.3e-4 5.3e-4,-1.8e-4 0.001,-2.6e-4 0.002,-5.3e-4 5.3e-4,-2.2e-4 7.9e-4,-7.9e-4 0.001,-7.9e-4 7.9e-4,-1.5e-4 0.001,2e-5 0.002,2e-5 0.002,3e-5 0.004,4e-5 0.006,-1e-5 0.002,-8e-5 0.004,-1.2e-4 0.005,-5.3e-4 5.3e-4,-1.4e-4 10e-4,-2.6e-4 0.002,-5.3e-4 5.3e-4,-2.2e-4 0.001,-7.9e-4 0.002,-7.9e-4 7.9e-4,-1.4e-4 0.001,2e-5 0.002,3e-5 0.005,6e-5 0.009,1.3e-4 0.0138,-2.7e-4 0.003,-2.6e-4 0.005,-5.3e-4 0.008,-0.001 7.9e-4,-1.9e-4 0.002,-5.3e-4 0.003,-5.3e-4 0.002,-2.6e-4 0.004,-4e-5 0.006,-5.3e-4 0.002,-1.7e-4 0.004,-5.3e-4 0.006,-7.9e-4 7.9e-4,-1.5e-4 0.002,-5.3e-4 0.002,-5.3e-4 5.3e-4,-7e-5 0.001,6e-5 0.002,10e-5 0.0273,-0.0196 0.0546,-0.0392 0.0819,-0.0587 2e-4,-1.4e-4 -5.3e-4,3e-5 -7.9e-4,5e-5 -0.004,5e-5 -0.008,-6e-5 -0.0119,-7e-5 -0.004,-3e-5 -0.009,-7e-5 -0.0131,-9e-5 -0.006,-2e-5 -0.0118,-3e-5 -0.0177,-9e-5 -0.005,-9e-5 -0.002,-1e-5 -0.006,-1.5e-4 -5.3e-4,-2e-5 -0.001,-2.7e-4 -0.002,-5e-5 -0.1462,0.10362 -0.1134,0.0591 -0.0791,0.0587 0.004,6e-5 0.008,1.6e-4 0.012,-5e-5 0.001,-1.4e-4 0.002,-1.7e-4 0.004,-5.3e-4 5.3e-4,-1.5e-4 0.001,-2.7e-4 0.002,-5.3e-4 5.3e-4,-2.3e-4 7.9e-4,-8e-4 0.001,-8e-4 10e-4,-2.6e-4 0.003,2.7e-4 0.004,3e-5 0.004,3e-5 0.009,4e-5 0.0133,5e-5 0.007,5e-5 0.0149,2.1e-4 0.0224,5.3e-4 0.005,2.7e-4 0.009,2.7e-4 0.0139,0.001 0.001,1.7e-4 0.002,0.001 0.003,7.9e-4 0.0277,-0.019 0.0545,-0.0391 0.0817,-0.0588 2e-4,-1.5e-4 -5.3e-4,4e-5 -7.9e-4,6e-5 -0.004,5e-5 -0.008,-7e-5 -0.0125,-7e-5 -0.005,-3e-5 -0.009,-7e-5 -0.0139,-1.4e-4 -0.004,-3e-5 -0.008,-7e-5 -0.0124,-1e-4 -0.004,-4e-5 -0.008,-8e-5 -0.0124,-1.1e-4 -0.004,-4e-5 -0.008,-8e-5 -0.0125,-1.1e-4 -0.005,-4e-5 -0.009,-6e-5 -0.0135,-9e-5 -0.005,-4e-5 -0.0103,-1.1e-4 -0.0155,-1e-4 -0.007,-10e-6 -0.0146,-6e-5 -0.0219,-1.6e-4 -0.007,-8e-5 -0.0139,-1.4e-4 -0.0209,-1.8e-4 -0.006,-6e-5 -0.0121,-2e-4 -0.0182,-2.4e-4 -0.004,-4e-5 -0.009,-1.2e-4 -0.0134,-1.4e-4 -0.005,-3e-5 -0.009,-6e-5 -0.0139,-9e-5 -0.005,-3e-5 -0.0108,-9e-5 -0.0162,-1.5e-4 -0.005,-4e-5 -0.011,-9e-5 -0.0165,-1.7e-4 -0.006,-3e-5 -0.0117,-3e-5 -0.0175,5e-5 -0.003,1.4e-4 -0.005,2.5e-4 -0.008,8e-4 -0.002,2.6e-4 -0.003,7.9e-4 -0.005,10e-4 -8e-4,9e-5 -0.002,-3e-5 -0.003,-3e-5 -0.005,-7e-5 -0.009,-2.6e-4 -0.0139,-6e-5 -0.002,1.3e-4 -0.004,2.5e-4 -0.006,8e-4 -5.3e-4,1.3e-4 -0.001,2.6e-4 -0.002,5.2e-4 -5.3e-4,2e-4 -0.001,5.3e-4 -0.002,8e-4 -7.9e-4,1.2e-4 -10e-4,-2e-5 -0.002,-2e-5 -0.004,-4e-5 -0.008,-7e-5 -0.0126,-10e-5 -0.005,-3e-5 -0.0103,-5e-5 -0.0155,-9e-5 -0.005,-5e-5 -0.0109,-1.8e-4 -0.0163,-2.2e-4 -0.005,-3e-5 -0.01,-1.5e-4 -0.0148,2.2e-4 -0.002,2.3e-4 -0.005,5.3e-4 -0.007,10e-4 -7.9e-4,1.7e-4 -0.001,5.3e-4 -0.002,5.3e-4 -10e-4,2.1e-4 -0.003,-2.4e-4 -0.004,-3e-5 -0.004,-4e-5 -0.008,-8e-5 -0.0124,-1.1e-4 -0.004,-4e-5 -0.008,-7e-5 -0.0124,-8e-5 -0.004,-10e-6 -0.008,0 -0.0119,0 -0.003,-10e-6 -0.006,2.7e-4 -0.009,-10e-4 -5.2e-4,-2.6e-4 -0.001,-7.9e-4 -0.002,-0.001 -0.004,-0.002 0.002,0.002 -0.002,-2.6e-4 -2.7e-4,-1.7e-4 -8e-4,-0.001 -8e-4,-7.9e-4 -5.3e-4,10e-4 0.002,0.003 0.002,0.004 2.7e-4,5.3e-4 8e-4,7.9e-4 0.001,0.001 5.3e-4,2.6e-4 0.002,2.6e-4 10e-4,5.3e-4 -0.028,0.0163 -0.0563,0.0321 -0.0846,0.048 -5.3e-4,2.7e-4 0.001,-0.001 0.002,-0.001 0.001,-7.9e-4 0.003,-5.3e-4 0.004,-0.002 0.003,-2.6e-4 0.005,-7.9e-4 0.008,-0.002 8e-4,-2.6e-4 0.002,-7.9e-4 0.003,-7.9e-4 0.002,-5.3e-4 0.004,-2.6e-4 0.006,-7.9e-4 7.9e-4,-2.4e-4 0.002,-5.3e-4 0.003,-8e-4 0.002,-2.6e-4 0.004,-1.4e-4 0.005,-5.3e-4 8e-4,-1.2e-4 0.002,-2.6e-4 0.002,-5.3e-4 8e-4,-1.8e-4 0.001,-5.2e-4 0.002,-5.2e-4 7.9e-4,-1.1e-4 0.002,2e-5 0.002,3e-5 0.004,1.1e-4 0.009,1.6e-4 0.0132,-5.3e-4 7.9e-4,-1.7e-4 0.002,-2.6e-4 0.002,-5.3e-4 8e-4,-2e-4 0.002,-5.3e-4 0.002,-7.9e-4 0.001,-1.6e-4 0.002,-9e-5 0.003,-1.7e-4 0.004,-2.7e-4 0.008,-10e-4 0.0114,-0.002 0.009,-0.003 0.001,-1.7e-4 0.0107,-0.003 0.002,-7.9e-4 0.005,-10e-4 0.007,-0.002 0.008,-0.003 0.0165,-0.006 0.0247,-0.01 0.0305,-0.0178 0.0621,-0.0337 0.0913,-0.0534 0.005,-0.003 0.001,-0.0121 -0.002,-0.015 -0.004,-0.003 -0.0147,-0.002 -0.0189,-0.003 -0.0303,0.001 -0.0605,0.002 -0.0908,0.002 -0.004,-7e-5 -0.008,-1.2e-4 -0.0124,-1.9e-4 -0.002,-3e-5 -0.005,-0.001 -0.007,-1.1e-4 -0.10909,0.0725 -0.11156,0.058 -0.0704,0.0585 0.0148,1.6e-4 0.0295,5.3e-4 0.0443,0.001 0.0136,5.3e-4 0.0272,0.001 0.0407,0.002 0.005,2.6e-4 0.01,7.9e-4 0.0143,0.001 0.004,2.6e-4 0.007,7.9e-4 0.0109,7.9e-4 0.002,7e-5 0.003,-1.3e-4 0.005,-1.9e-4 0.0275,-0.0193 0.0549,-0.0387 0.0824,-0.0581 -8e-4,2.6e-4 -0.002,7.9e-4 -0.002,7.9e-4 -0.002,2.7e-4 -0.003,5.3e-4 -0.005,8e-4 -0.009,10e-4 -0.019,0.002 -0.0285,0.002 -0.0278,0.001 -0.0556,0.002 -0.0834,0.001 -0.095,0.0656 -0.11634,0.0581 -0.0679,0.0583 0.0133,5e-5 0.0266,4e-5 0.0399,2e-4 0.0149,1.7e-4 0.0298,2.6e-4 0.0447,7.9e-4 0.007,2.7e-4 0.0148,8e-4 0.0222,10e-4 0.002,1e-4 0.0138,0.001 0.0151,0.001 0.003,1e-4 0.005,4e-5 0.008,6e-5 0.0182,1.3e-4 0.0365,1.7e-4 0.0547,2.6e-4 0.006,3e-5 0.012,1.3e-4 0.018,1.1e-4 0.005,-3e-5 0.0107,-1.8e-4 0.016,-2.7e-4 0.004,-7e-5 0.009,-7e-5 0.0133,-2.3e-4 0.003,-1.1e-4 0.006,-5.3e-4 0.009,-5.3e-4 0.0123,-7.9e-4 0.0246,-10e-4 0.0369,-0.002 0.0126,-5.3e-4 0.0116,-2.7e-4 0.0242,-8e-4 0.004,-9e-5 0.007,-1.9e-4 0.0105,-2.6e-4 0.002,-7e-5 0.005,10e-4 0.007,-1.8e-4 0.089,-0.0554 0.111,-0.0349 0.0832,-0.0593 -0.006,1.4e-4 -0.0113,1e-4 -0.0169,-8e-5 -0.002,-5e-5 -0.003,-0.001 -0.005,-1.9e-4 -0.028,0.0187 -0.0553,0.0385 -0.0824,0.0584 -0.001,8e-4 0.002,-2.3e-4 0.003,-2.6e-4 0.009,-2.6e-4 0.0185,-5.3e-4 0.0277,-5.3e-4 0.004,-3e-5 0.007,-6e-5 0.0108,-3e-5 0.003,3e-5 0.006,0.002 0.008,2.1e-4 0.0291,-0.0183 0.0565,-0.0391 0.0847,-0.0587 -0.007,-8e-4 -0.002,-2.7e-4 -0.0119,-5.3e-4 -0.0151,-1.4e-4 -0.0301,-7.9e-4 -0.0451,-0.002 -0.0278,0.0196 -0.0553,0.0396 -0.0833,0.0589 -5.2e-4,2.6e-4 -1e-4,-0.002 5.3e-4,-0.002 0.001,-5.3e-4 0.003,-2.4e-4 0.005,-2.7e-4 0.002,-9e-5 0.004,-1.7e-4 0.006,-2.1e-4 0.002,-4e-5 0.004,10e-4 0.006,-1e-5 0.0291,-0.0181 0.0572,-0.038 0.0858,-0.057 -7.9e-4,-7.9e-4 -10e-4,-0.002 -0.002,-0.002 -0.001,-5.3e-4 -0.002,1e-5 -0.003,-1e-5 -7e-5,0 -0.007,-2.6e-4 -0.008,1.4e-4 -0.0874,0.0593 -0.11512,0.064 -0.0789,0.0572 0.006,-5.2e-4 0.007,-7.9e-4 0.0127,-10e-4 0.002,-1.5e-4 0.005,7.9e-4 0.007,-2.7e-4 0.0308,-0.0157 0.0626,-0.03 0.0909,-0.0497 0.003,-0.002 -0.003,-0.007 -0.005,-0.01 -0.002,-0.001 -0.004,-1.4e-4 -0.006,-2.1e-4 -0.0147,-1.1e-4 -0.0294,-2.7e-4 -0.0441,-0.001 -0.005,-2.5e-4 -0.01,-7.9e-4 -0.0143,-10e-4 -0.002,-1e-4 -0.005,-0.001 -0.007,6e-5 -0.0284,0.0178 -0.0555,0.0377 -0.0832,0.0565 0.002,-8e-4 0.003,-0.002 0.005,-0.002 0.004,-7.9e-4 0.0276,-0.002 0.0296,-0.003 0.0187,-0.001 0.0374,-0.002 0.0562,-0.002 0.0446,10e-4 0.0122,0.002 0.0952,-0.058 10e-4,-8e-4 -0.003,2e-4 -0.005,2.2e-4 -0.0143,1.8e-4 -0.0285,-2.6e-4 -0.0427,-0.001 -0.004,-2.6e-4 -0.008,-7.9e-4 -0.0127,-7.9e-4 -0.002,-1e-5 -0.003,-7e-5 -0.004,7.9e-4 -0.0279,0.0184 -0.055,0.038 -0.0826,0.0567 -7.9e-4,5.3e-4 0.001,-0.002 0.002,-0.002 7.9e-4,-2.7e-4 0.01,-0.002 0.0105,-0.002 0.0375,-0.006 0.0247,-0.004 0.0929,-0.0532 0.003,-0.002 -0.002,-0.006 -0.005,-0.008 -0.001,-10e-4 -0.003,-2.7e-4 -0.005,-5.3e-4 -0.008,-5.3e-4 -0.0142,-2.6e-4 -0.0224,-5.3e-4 -0.014,-2.6e-4 -0.0176,-2.6e-4 -0.0316,-0.001 -0.004,-2.2e-4 -0.009,-0.003 -0.0121,-7.9e-4 -0.03,0.0174 -0.0576,0.0387 -0.0864,0.058 0.001,-5.3e-4 0.002,-10e-4 0.003,-0.002 0.003,-5.3e-4 0.006,-5.3e-4 0.009,-7.9e-4 0.0106,-1.3e-4 0.0157,-2.7e-4 0.0263,2e-5 0.003,1.1e-4 0.007,0.003 0.01,5.3e-4 0.002,-0.002 -0.003,-0.008 -8e-4,-0.009 0.0269,-0.0182 0.0571,-0.0311 0.0851,-0.0476 0.002,-0.001 -0.004,8e-4 -0.006,10e-4 -0.0151,0.002 -0.0301,0.003 -0.0453,0.004 -0.006,2.3e-4 -0.0121,2.6e-4 -0.0181,2.7e-4 -0.005,5e-5 -0.01,-0.002 -0.0139,1e-5 -0.003,0.002 -10e-4,0.006 -10e-4,0.009 -0.0269,0.0149 -0.0543,0.0288 -0.0806,0.0448 -0.004,0.002 0.009,-0.003 0.0137,-0.004 0.007,-0.002 0.0142,-0.003 0.0213,-0.005 0.024,-0.005 0.0481,-0.009 0.0723,-0.0138 0.0426,-0.009 0.0215,-0.004 0.0989,-0.0561 0.002,-10e-4 -0.001,-0.004 -7.9e-4,-0.006 2.7e-4,-10e-4 0.003,0.002 0.002,0.003 -0.06,0.0375 -0.11542,0.0635 -0.0819,0.0477 0.003,-2e-4 0.005,-5.3e-4 0.008,-5.3e-4 0.006,-1.6e-4 0.0225,2.7e-4 0.0284,5.3e-4 0.005,2e-4 0.009,7.9e-4 0.0142,7.9e-4 0.003,6e-5 0.007,0.002 0.008,-2.6e-4 0.002,-0.002 -0.002,-0.005 -0.002,-0.008 0.0276,-0.0156 0.0555,-0.0307 0.0829,-0.0467 0.002,-0.001 -0.005,0.002 -0.007,0.003 -0.003,0.001 -0.007,0.002 -0.0102,0.003 -0.0102,0.003 -0.0204,0.006 -0.0308,0.008 -0.0284,0.0198 -0.0577,0.0382 -0.0851,0.0593 -0.001,10e-4 0.002,0.003 0.003,0.004 0.002,7.9e-4 0.004,2.6e-4 0.006,2.6e-4 0.003,-8e-5 0.006,-5.3e-4 0.008,-7.9e-4 0.017,-10e-4 0.001,1.6e-4 0.0152,-10e-4 -0.002,-0.0389 -0.002,-0.005 0.0832,-0.0581 0.001,-5.3e-4 -0.002,0.002 -0.003,0.002 -0.002,10e-4 -0.004,0.002 -0.006,0.002 -0.005,0.002 -0.0105,0.004 -0.0159,0.005 -0.008,0.002 -0.011,0.003 -0.0194,0.004 -0.003,2.6e-4 -0.006,-0.001 -0.008,7.9e-4 -0.002,0.003 0.004,0.008 0.002,0.0104 -0.0572,0.0405 -0.11722,0.0585 -0.0818,0.0477 0.0391,-0.008 0.0184,-0.006 0.0908,-0.0596 7.9e-4,-5.3e-4 -0.001,-0.002 -0.002,-0.002 -0.002,-8e-4 -0.005,-8e-4 -0.006,-8e-4 -0.0275,0.0196 -0.055,0.0394 -0.0826,0.0588 -5.3e-4,2.6e-4 5.3e-4,-0.001 0.001,-0.002 0.002,-7.9e-4 0.004,-7.9e-4 0.006,-0.001 0.0113,-0.001 0.0227,-0.001 0.0341,-0.001 0.0282,-0.0195 0.057,-0.0384 0.0847,-0.0587 0.001,-10e-4 -0.003,2.7e-4 -0.005,2.7e-4 -0.021,7.9e-4 -0.042,5e-5 -0.0629,-5.3e-4 -0.047,-0.003 -0.011,-0.003 -0.0988,0.0574 -0.001,7.9e-4 0.003,-0.001 0.004,-0.001 0.003,-5.3e-4 0.006,-8e-4 0.009,-10e-4 0.006,-5.3e-4 0.0241,-0.002 0.0294,-0.002 0.005,-5.3e-4 0.0108,-8e-4 0.0161,-10e-4 0.005,-2.6e-4 0.01,10e-4 0.0136,-0.001 0.0318,-0.0159 0.0636,-0.0323 0.0931,-0.0523 0.002,-0.002 -0.002,-0.006 -0.005,-0.008 -0.003,-0.002 -0.008,0.002 -0.0107,-5.3e-4 -0.002,-6e-5 -0.004,-1e-4 -0.006,-1.7e-4 -0.002,-6e-5 -0.003,-0.001 -0.005,-2e-4 -0.0283,0.0188 -0.0558,0.0387 -0.0834,0.0585 -5.3e-4,2.6e-4 0.001,2e-5 0.002,1e-5 8e-4,-2e-5 0.002,2.6e-4 0.002,-7e-5 0.0276,-0.0192 0.0547,-0.039 0.0821,-0.0585 -7.9e-4,2.1e-4 -0.001,5.3e-4 -0.002,5.3e-4 -0.004,5.3e-4 -0.0169,7.9e-4 -0.0198,7.9e-4 -0.0167,2.6e-4 -0.0334,5.3e-4 -0.0501,2.3e-4 -0.004,-1e-4 -0.008,-2.6e-4 -0.012,-2.6e-4 -0.002,-1e-5 -0.003,-8e-4 -0.005,1.9e-4 -0.10483,0.0701 -0.1113,0.0579 -0.0669,0.0571 0.0381,-5.3e-4 0.005,7.9e-4 0.0868,-0.0591 8e-4,-5.3e-4 -0.002,7.9e-4 -0.003,7.9e-4 -0.003,5.3e-4 -0.005,5.3e-4 -0.008,8e-4 -0.008,5.3e-4 -0.0227,10e-4 -0.0306,10e-4 -0.007,1.6e-4 -0.0138,2.6e-4 -0.0206,5.3e-4 -0.009,1e-4 -0.0326,-2e-5 -0.0423,-1.8e-4 -0.005,-8e-5 -0.01,-2.6e-4 -0.015,-2.6e-4 -0.002,-4e-5 -0.005,-10e-4 -0.007,-5e-5 -0.0283,0.0184 -0.0553,0.039 -0.0829,0.0585 0.009,-5.3e-4 0.0184,-2e-4 0.0276,1.3e-4 0.002,7e-5 0.004,10e-4 0.006,2.6e-4 0.0283,-0.0185 0.0553,-0.0389 0.0829,-0.0584 -0.005,0.001 -0.003,7.9e-4 -0.0111,0.001 -0.004,1.3e-4 -0.008,2.1e-4 -0.0119,2.6e-4 -0.0149,2.2e-4 -0.0297,2.2e-4 -0.0446,-2.6e-4 -0.004,-2.5e-4 -0.007,-8e-4 -0.0112,-8e-4 -0.002,-2e-5 -0.004,-5.2e-4 -0.005,5.3e-4 -0.028,0.0182 -0.0555,0.0372 -0.0828,0.0565 -10e-4,7.9e-4 0.003,-0.001 0.004,-0.001 0.005,-5.3e-4 0.0182,-5.3e-4 0.0222,-8e-4 0.004,1.2e-4 0.008,1.9e-4 0.0127,2.7e-4 0.003,1.2e-4 0.007,0.002 0.009,5.3e-4 0.0289,-0.018 0.0558,-0.0389 0.0837,-0.0584 -0.001,1.8e-4 -0.002,5.3e-4 -0.003,5.3e-4 -0.006,5.3e-4 -0.0163,2.7e-4 -0.0213,2.7e-4 -0.0331,-5.3e-4 0.003,1.5e-4 -0.029,-8e-4 -0.003,-8e-5 -0.007,-0.002 -0.009,-1.2e-4 -0.002,0.002 0.004,0.007 0.002,0.009 -0.0266,0.018 -0.0563,0.0308 -0.0841,0.0469 -0.002,0.001 0.004,-0.001 0.006,-0.002 0.0237,-0.004 -0.006,10e-4 0.0187,-0.003 0.003,-5.3e-4 0.006,-1.3e-4 0.009,-0.002 0.0309,-0.016 0.0629,-0.0303 0.0914,-0.0503 0.003,-0.002 -0.002,-0.008 -0.004,-0.0109 -0.001,-10e-4 -0.004,-5.3e-4 -0.006,-7.9e-4 -0.0198,-5.3e-4 -0.0396,-0.001 -0.0594,-0.003 -0.005,-5.3e-4 -0.01,-0.001 -0.0144,-0.002 -0.003,-2.6e-4 -0.006,-5.3e-4 -0.009,-7.9e-4 5.3e-4,0.0358 10e-4,0.003 -0.0831,0.0532 -0.002,7.9e-4 0.003,-0.002 0.004,-0.003 0.005,-0.002 0.0136,-0.004 0.018,-0.005 0.004,-8e-4 0.009,-0.001 0.0134,-0.002 0.0165,-10e-4 0.0329,-0.003 0.0495,-0.003 0.004,-7e-5 0.009,0.002 0.0122,1.5e-4 0.0977,-0.0565 0.12147,-0.0514 0.0846,-0.0583 -0.0137,-2.6e-4 -0.0273,-7.9e-4 -0.041,-0.002 -0.005,-2.7e-4 -0.009,-5.3e-4 -0.0143,-0.001 -0.003,-2.7e-4 -0.007,-0.003 -0.009,-10e-4 -0.0293,0.0177 -0.0566,0.0386 -0.0849,0.0579 0.007,-10e-4 0.003,-7.9e-4 0.0151,-2.6e-4 0.0238,7.9e-4 0.0475,0.003 0.0711,0.006 0.0433,0.006 0.007,0.003 0.0941,-0.0552 0.001,-8e-4 -0.002,0.002 -0.004,0.003 -0.004,0.001 -0.007,0.001 -0.011,0.001 -0.0129,10e-4 -0.0219,7.9e-4 -0.035,7.9e-4 -0.0518,-0.001 -0.011,-0.003 -0.10489,0.0587 -0.001,8e-4 0.002,-0.002 0.003,-0.002 0.004,-0.001 0.009,-0.002 0.0137,-0.002 0.008,-10e-4 0.0156,-0.002 0.0234,-0.003 0.0106,-10e-4 0.0213,-0.003 0.0319,-0.004 0.0705,-0.008 0.14131,-0.0163 0.21241,-0.0147 0.0452,0.003 0.0118,0.003 0.0941,-0.0581 7.9e-4,-5.3e-4 -0.002,-1.6e-4 -0.003,-2.4e-4 -0.001,-1e-4 -0.002,-2.1e-4 -0.003,-2.7e-4 -0.001,-7e-5 -0.002,-7.9e-4 -0.003,-1.7e-4 -0.0279,0.0189 -0.0551,0.0389 -0.0827,0.0583 2.7e-4,-2.7e-4 5.3e-4,-0.001 0.001,-0.001 0.002,-2.7e-4 0.004,-1.4e-4 0.006,-1.5e-4 0.003,-2e-5 0.007,1e-5 0.0102,6e-5 0.0121,1.6e-4 0.0243,5.3e-4 0.0364,0.001 0.0392,-0.001 0.008,7.9e-4 0.0887,-0.0571 0.002,-0.001 -0.003,0.001 -0.005,0.001 -0.004,5.3e-4 -0.008,7.9e-4 -0.0114,7.9e-4 -0.011,5.3e-4 -0.0297,5.3e-4 -0.04,5.3e-4 -0.0281,-5.3e-4 -0.0562,-10e-4 -0.0842,-0.002 -0.008,-2.6e-4 -0.016,-7.9e-4 -0.024,-0.001 -0.006,-2.6e-4 -0.0119,-0.004 -0.0169,-10e-4 -0.0309,0.0167 -0.0588,0.0387 -0.0881,0.0581 0.007,-0.003 0.002,-0.002 0.0169,-0.002 0.007,-1e-4 0.0136,-1.4e-4 0.0203,-1.7e-4 0.0265,-1.2e-4 0.053,2e-5 0.0795,5.3e-4 0.008,2e-4 0.0158,2.6e-4 0.0237,5.3e-4 0.005,1.4e-4 0.0109,0.003 0.0154,5.2e-4 0.0308,-0.0171 0.0593,-0.038 0.0884,-0.058 0.001,-8e-4 -0.003,4e-5 -0.004,4e-5 -0.0141,4e-5 -0.0248,-2e-5 -0.0393,-7e-5 -0.031,2e-5 -0.062,-2.3e-4 -0.093,-10e-4 -0.008,-2.2e-4 -0.0158,-5.3e-4 -0.0237,-8e-4 -0.005,-2e-4 -0.0105,-7.9e-4 -0.0157,-7.9e-4 -0.002,-3e-5 -0.003,2.6e-4 -0.005,5.3e-4 -0.0272,0.0192 -0.055,0.0377 -0.0817,0.0577 -0.001,0.001 0.003,-2.7e-4 0.005,-5.3e-4 0.0183,-10e-4 0.0367,-0.002 0.0549,-0.003 0.0224,-0.002 0.0448,-0.004 0.0671,-0.006 0.01,-10e-4 0.0272,-0.004 0.0372,-0.005 0.004,-5.3e-4 0.008,-0.001 0.012,-0.002 0.0284,-0.0201 0.0575,-0.0393 0.0853,-0.0602 0.001,-8e-4 -0.002,-10e-4 -0.004,-10e-4 -0.002,-5.3e-4 -0.004,-5.3e-4 -0.006,-5.3e-4 -0.008,-7.9e-4 -0.0169,-10e-4 -0.0254,-0.002 -0.002,-2.6e-4 -0.005,-5.3e-4 -0.007,-7.9e-4 -0.005,-5.3e-4 -0.01,-0.002 -0.0151,-0.002 -0.002,-1.6e-4 -0.004,-1.6e-4 -0.006,-2.5e-4 -0.002,-1.2e-4 -0.005,-2.7e-4 -0.007,-5.3e-4 -0.0228,-0.002 -0.0455,-0.004 -0.0682,-0.007 -0.0345,-0.005 0.007,0.001 -0.0269,-0.004 -0.004,-5.2e-4 -0.009,-0.001 -0.0131,-0.002 -0.0125,-10e-4 -0.0251,-0.002 -0.0377,-0.002 -0.0253,-5.3e-4 -0.0508,-2e-4 -0.076,0.002 -0.012,0.001 -0.0239,0.002 -0.0359,0.004 -0.003,2.7e-4 -0.006,5.3e-4 -0.009,8e-4 -0.002,1.5e-4 -0.004,-5.3e-4 -0.006,5.2e-4 -0.0299,0.016 -0.059,0.0333 -0.0885,0.05 0.002,0.003 0.004,0.007 0.006,0.0105 2.5e-4,2.7e-4 7.9e-4,-1.7e-4 0.001,-2.2e-4 0.004,-2.6e-4 0.008,-7e-5 0.0113,-5.2e-4 0.003,-5.3e-4 0.003,-2.7e-4 0.006,-0.001 0.001,-2.1e-4 0.002,-5.3e-4 0.003,-5.3e-4 0.004,-5.3e-4 0.007,-4e-5 0.0112,-8e-4 0.003,-2.6e-4 0.005,-7.9e-4 0.008,-0.001 0.001,-2.4e-4 0.003,-5.3e-4 0.004,-8e-4 0.004,-7.9e-4 0.009,-0.001 0.0134,-0.002 0.014,-0.002 0.0278,-0.004 0.0418,-0.005 0.0161,-0.002 0.0323,-0.003 0.0485,-0.004 0.0197,-0.002 0.0395,-0.003 0.0592,-0.004 0.0417,-0.004 0.0288,0.002 0.0999,-0.0499 0.003,-0.002 -0.004,-0.008 -0.006,-0.0109 -0.001,-0.001 -0.005,0.003 -0.005,5.3e-4 -0.003,1.8e-4 -0.004,2.2e-4 -0.008,5.2e-4 -0.002,2.3e-4 -0.005,8e-4 -0.007,8e-4 -0.002,1.3e-4 -0.004,-2.1e-4 -0.007,-7e-5 -0.007,-1e-4 -0.0142,-7e-5 -0.0214,2e-5 -0.008,6e-5 -0.0153,5.3e-4 -0.0229,0.002 -0.0122,1.4e-4 -0.0245,5.3e-4 -0.0367,0.002 -0.009,0.001 -0.0174,0.002 -0.0262,0.003 -0.0111,0.001 -0.0222,0.002 -0.0333,0.003 -0.005,2.7e-4 -0.0131,0.001 -0.0181,0.001 -0.002,3e-5 -0.003,-0.001 -0.005,-1.9e-4 -0.10895,0.0724 -0.11613,0.0591 -0.0796,0.0585 0.007,-3e-5 0.0149,-1.2e-4 0.0223,-2.7e-4 0.004,-2.6e-4 0.008,-5.3e-4 0.0124,-0.001 0.001,-1.4e-4 0.003,-2.7e-4 0.004,-5.3e-4 0.003,-1.5e-4 0.006,1.9e-4 0.009,2e-5 0.008,-6e-5 0.0169,-2.5e-4 0.0251,-0.002 0.002,-2.7e-4 0.003,-5.3e-4 0.005,-0.001 0.002,-2.7e-4 0.003,-8e-4 0.005,-10e-4 0.001,-2.7e-4 0.003,-5.3e-4 0.004,-7.9e-4 0.003,-5.3e-4 0.005,-0.002 0.008,-0.003 0.007,2e-5 0.0144,0 0.0216,3e-5 0.0132,0 0.0264,1.3e-4 0.0396,-1e-4 0.023,-2.6e-4 0.046,-7.9e-4 0.069,-0.001 0.0287,-5.3e-4 0.0573,1.7e-4 0.086,5.3e-4 0.007,1.4e-4 0.0148,2.5e-4 0.022,5.3e-4 0.002,8e-5 0.005,0.002 0.007,2.6e-4 0.0289,-0.0184 0.0563,-0.0388 0.0843,-0.0585 0.001,-8e-4 -0.009,0.002 -0.004,1.3e-4 -0.009,-4e-5 -0.0172,-1.1e-4 -0.0258,9e-5 -0.0101,2.3e-4 -0.0202,5.3e-4 -0.0302,0.002 -0.009,-4e-5 -0.0178,4e-5 -0.0266,5.3e-4 -0.005,2.6e-4 -0.004,2.6e-4 -0.009,7.9e-4 -0.002,1.3e-4 -0.003,2.7e-4 -0.005,5.3e-4 -0.004,1.6e-4 -0.009,-2.6e-4 -0.0134,-1.8e-4 -0.007,-1.1e-4 -0.0135,-1.5e-4 -0.0202,-2.4e-4 -0.006,-5e-5 -0.0118,-1.4e-4 -0.0177,-2.1e-4 -0.005,-3e-5 -0.0109,10e-6 -0.0163,7.9e-4 -0.004,2.6e-4 -0.007,0.001 -0.011,0.001 -0.004,2.3e-4 -0.008,-2.6e-4 -0.0127,-7e-5 -0.008,-7e-5 -0.0169,-2.4e-4 -0.0254,-1.7e-4 -0.006,1e-4 -0.0122,5.3e-4 -0.0182,0.002 -0.007,-4e-5 -0.0136,-1.3e-4 -0.0203,-2.5e-4 -0.005,-6e-5 -0.0106,-6e-5 -0.016,-1.1e-4 -0.005,-6e-5 -0.01,-1.5e-4 -0.015,-2e-4 -0.004,-5e-5 -0.008,-1.1e-4 -0.0124,-1.7e-4 -0.004,-6e-5 -0.009,-1.6e-4 -0.0129,5.2e-4 -0.002,2.7e-4 -0.002,2.7e-4 -0.005,0.001 -7.9e-4,2.2e-4 -0.002,5.3e-4 -0.002,8e-4 -0.001,1.6e-4 -0.002,9e-5 -0.003,1.6e-4 -0.003,2.1e-4 -0.004,2.7e-4 -0.007,8e-4 -0.005,5.3e-4 -0.01,0.001 -0.0143,0.002 -0.005,5.3e-4 -0.01,2.1e-4 -0.0149,7.9e-4 -0.0356,0.002 -0.1096,0.0275 -0.0851,0.0593 2.7e-4,5.2e-4 0.004,0.002 0.004,0.002 7.9e-4,1.3e-4 0.001,1e-5 0.002,1e-5 0.005,0 0.0101,-3e-5 0.0151,1.2e-4 0.008,2.6e-4 0.0168,7.9e-4 0.0252,0.002 10e-4,2.6e-4 0.002,5.3e-4 0.004,7.9e-4 5.3e-4,9e-5 0.004,2.7e-4 0.005,5.3e-4 5.3e-4,2.3e-4 0.001,10e-4 0.002,10e-4 0.0854,-0.0592 0.11482,-0.0613 0.0807,-0.0587 -0.004,5e-5 -0.008,-6e-5 -0.0122,-6e-5 -0.005,-4e-5 -0.01,-6e-5 -0.0145,-1.1e-4 -0.004,-7e-5 -0.008,-6e-5 -0.0127,-2.2e-4 0,0 -0.081,0.0587 -0.081,0.0587 z"
       id="path1595"
       style="fill:#ffffff;fill-opacity:1;stroke-width:0.117512;stroke-linecap:round;stroke-dasharray:0.117512, 0.940096;paint-order:stroke fill markers" />
    <path
       d="m 200.12023,113.37593 c -2.5e-4,-8e-4 -5.3e-4,-10e-4 -7.9e-4,-0.002 -2.7e-4,-0.001 -2.7e-4,-0.002 -5.3e-4,-0.004 -2.7e-4,-0.002 -8e-4,-0.004 -0.001,-0.006 -0.001,-0.008 -0.002,-0.0171 -0.002,-0.0256 -8e-4,-0.0162 -8e-4,-0.0323 -5.3e-4,-0.0485 1.1e-4,-0.009 2.6e-4,-0.0178 5.3e-4,-0.0267 2.3e-4,-0.002 -1e-4,-0.004 9e-5,-0.005 7e-5,-8e-4 2.6e-4,-0.002 5.3e-4,-0.002 5.2e-4,-0.003 7.9e-4,-0.006 10e-4,-0.008 2.7e-4,-0.002 1.5e-4,-0.004 2.7e-4,-0.006 2.4e-4,-0.002 7.9e-4,-0.004 0.001,-0.006 2.2e-4,-0.002 5.3e-4,-0.005 7.9e-4,-0.007 7.9e-4,-0.008 7.9e-4,-0.0155 7.9e-4,-0.0232 -1.2e-4,-0.006 2.7e-4,-0.0123 1.4e-4,-0.0184 -5e-5,-0.002 -5.3e-4,-0.008 -5.3e-4,-0.01 -5.3e-4,-0.007 -0.002,-0.0149 -0.003,-0.0222 -10e-4,-0.006 -0.002,-0.0123 -0.003,-0.0183 -0.001,-0.003 -0.001,-0.007 -0.002,-0.0102 -2.6e-4,-0.002 -7.9e-4,-0.003 -0.001,-0.005 -7.9e-4,-0.003 -5.3e-4,-0.006 -10e-4,-0.009 -2.4e-4,-0.002 -8e-4,-0.004 -0.001,-0.006 -8e-4,-0.006 -0.001,-0.0128 -0.001,-0.0192 1.6e-4,-0.005 -2e-4,-0.009 1e-5,-0.0138 1.3e-4,-0.003 5.3e-4,-0.006 8e-4,-0.008 5.2e-4,-0.004 5.2e-4,-0.009 0.001,-0.0128 5.3e-4,-0.004 0.001,-0.008 0.002,-0.0115 7.9e-4,-0.006 0.001,-0.0118 0.001,-0.0177 0,0 -0.0861,0.0434 -0.0861,0.0434 v 0 c -2.4e-4,0.006 -5.3e-4,0.0113 -0.001,0.0169 -0.001,0.008 -0.002,0.0164 -0.002,0.0246 -5.3e-4,0.008 -7.9e-4,0.0155 -5.3e-4,0.0233 1.8e-4,0.007 5.3e-4,0.0136 0.002,0.0203 7.9e-4,0.005 7.9e-4,0.0104 0.002,0.0154 10e-4,0.005 0.002,0.01 0.003,0.0149 0.001,0.006 0.002,0.0122 0.003,0.0183 0.002,0.007 0.003,0.0138 0.003,0.0208 5.3e-4,0.009 2.7e-4,0.0182 1.2e-4,0.0273 -1.9e-4,0.008 -5.3e-4,0.015 -0.001,0.0225 -7.9e-4,0.007 -0.002,0.0132 -0.002,0.0199 -7.9e-4,0.006 -0.002,0.0111 -0.001,0.0168 4e-5,0.009 1.1e-4,0.0176 1.9e-4,0.0264 2.3e-4,0.0163 2.6e-4,0.0325 0.001,0.0488 7.9e-4,0.0131 0.001,0.0263 0.004,0.0393 0,0 0.0853,-0.046 0.0853,-0.046 z"
       id="path1605"
       style="fill:#ffffff;fill-opacity:1;stroke-width:0.117512;stroke-linecap:round;stroke-dasharray:0.117512, 0.940096;paint-order:stroke fill markers" />
    <path
       d="m 200.02258,113.14579 c 5.3e-4,0.01 2.6e-4,0.02 2.6e-4,0.0301 -9e-5,0.0111 -2.6e-4,0.0222 -5.3e-4,0.0332 -1e-5,2.7e-4 -1.5e-4,0.007 -1.3e-4,0.007 7e-5,0.001 2.7e-4,0.003 2.7e-4,0.004 2.6e-4,0.004 7.9e-4,0.009 7.9e-4,0.013 0.001,0.007 0.002,0.0145 0.002,0.0218 0.001,0.007 0.001,0.0131 0.002,0.0197 0.001,0.007 0.002,0.014 0.003,0.021 0.001,0.006 0.002,0.0117 0.002,0.0177 2.1e-4,0.002 -7e-5,0.003 9e-5,0.005 1.9e-4,0.002 5.3e-4,0.004 7.9e-4,0.006 2.7e-4,0.004 5.3e-4,0.005 5.3e-4,0.009 5.3e-4,0.0114 5.3e-4,0.0229 5.3e-4,0.0343 -7.9e-4,0.0135 -0.003,0.0268 -0.005,0.0402 -0.001,0.01 -0.002,0.0194 -0.004,0.0291 -5.3e-4,0.005 -0.001,0.0102 -0.002,0.0153 -5.3e-4,0.005 -0.001,0.0102 -0.002,0.0153 -10e-4,0.0156 -5.3e-4,0.0312 1e-4,0.0469 0,0 0.0836,-0.043 0.0836,-0.043 v 0 c -5.3e-4,-0.0126 -0.001,-0.0167 -5.3e-4,-0.0296 5.3e-4,-0.0155 0.002,-0.031 0.004,-0.0463 0.002,-0.0116 0.002,-0.0178 0.004,-0.0292 0.002,-0.0139 0.005,-0.0279 0.005,-0.042 7e-5,-0.0116 7e-5,-0.0233 -5.3e-4,-0.0349 -2.7e-4,-0.007 -8e-4,-0.014 -10e-4,-0.021 -5.2e-4,-0.006 -0.001,-0.0122 -0.002,-0.0182 -0.001,-0.007 -0.003,-0.0139 -0.003,-0.021 -5.3e-4,-0.006 -10e-4,-0.0128 -0.002,-0.0192 -5.3e-4,-0.007 -0.002,-0.0144 -0.002,-0.0217 -5.3e-4,-0.008 -0.001,-0.0161 -8e-4,-0.0242 1e-5,-0.011 -8e-5,-0.022 3e-5,-0.033 1.5e-4,-0.0102 2.3e-4,-0.0205 7.9e-4,-0.0307 0,0 -0.0864,0.0439 -0.0864,0.0439 z"
       id="path1617"
       style="fill:#ffffff;fill-opacity:1;stroke-width:0.117512;stroke-linecap:round;stroke-dasharray:0.117512, 0.940096;paint-order:stroke fill markers" />
    <path
       d="m 200.16956,113.19403 c -0.002,-0.009 -0.002,-0.0178 -0.003,-0.0267 -2.6e-4,-0.004 -7.9e-4,-0.008 -0.001,-0.0119 -7.9e-4,-0.0101 -0.001,-0.007 5.3e-4,-0.0131 -0.0281,0.0161 -0.0582,0.0291 -0.0842,0.0484 -0.003,0.002 0.002,0.008 0.002,0.0125 7.9e-4,0.01 0.002,0.019 0.002,0.0285 7.9e-4,0.025 7.9e-4,0.0605 2.6e-4,0.0851 -2.5e-4,0.0147 -7.9e-4,0.0295 -0.001,0.0442 -0.001,0.0241 -0.002,0.0462 -0.004,0.07 -5.3e-4,0.008 -0.001,0.0153 -0.002,0.023 -5.3e-4,0.004 -0.006,0.0151 -0.002,0.0133 0.091,-0.0392 0.0862,-0.0193 0.0806,-0.0707 -0.003,-0.0396 -0.003,-0.0793 -0.003,-0.11898 7e-5,-0.0127 5.3e-4,-0.0487 0.002,-0.0632 5.3e-4,-0.005 0.002,-0.01 0.003,-0.0148 0.0388,0.005 -0.0183,-0.003 -0.0786,0.0514 -0.005,0.005 0.003,0.0142 0.004,0.0213 0.002,0.0131 0.005,0.0263 0.008,0.0394 0.002,0.009 0.0165,0.0918 0.018,0.10008 0.01,0.0531 0.007,0.0365 0.0155,0.084 10e-4,0.007 0.003,0.0147 0.004,0.022 2.6e-4,0.002 5e-5,0.007 0.002,0.005 0.0917,-0.0753 0.0852,-0.0394 0.072,-0.1158 -0.008,-0.0523 -0.016,-0.10466 -0.0227,-0.15717 -8e-4,-0.007 -0.008,-0.061 -0.009,-0.0721 -5.3e-4,-0.006 -7.9e-4,-0.0114 -10e-4,-0.0172 -0.028,0.0164 -0.06,0.0274 -0.084,0.0491 -0.006,0.005 0.003,0.0157 0.004,0.0235 0.008,0.0529 0.014,0.10603 0.0189,0.15926 0.002,0.0166 0.003,0.0331 0.004,0.0497 -2.7e-4,0.0104 5.3e-4,0.0208 -8e-4,0.0312 -5.3e-4,0.004 -0.003,0.007 -0.005,0.0103 0.0262,-0.0175 0.0568,-0.0297 0.0785,-0.0524 0.005,-0.005 -0.006,-0.014 -0.008,-0.0212 -0.008,-0.026 -0.0121,-0.0453 -0.0183,-0.0724 -0.0123,-0.061 -0.0204,-0.12286 -0.0259,-0.18486 -1.5e-4,-0.002 0.002,-0.007 -5.3e-4,-0.006 -0.0296,0.014 -0.0594,0.0285 -0.0862,0.0474 -0.004,0.002 7.9e-4,0.009 7.9e-4,0.0128 2.6e-4,0.007 2.6e-4,0.0136 5.3e-4,0.0205 5.3e-4,0.0387 2.6e-4,0.0337 -1.4e-4,0.0758 -5.3e-4,0.0804 -0.001,0.16084 -0.003,0.24125 0,0 0.0823,-0.0421 0.0823,-0.0421 v 0 c -0.004,-0.0795 -0.005,-0.15924 -0.001,-0.23879 0.003,-0.0683 5.2e-4,-0.0177 0.004,-0.0781 5.3e-4,-0.007 5.3e-4,-0.0142 0.001,-0.0212 2.6e-4,-0.004 0.005,-0.0138 0.002,-0.0124 -0.0907,0.0302 -0.0961,0.0116 -0.0831,0.0451 0.001,0.005 0.002,0.009 0.003,0.014 7.9e-4,0.004 0.008,0.0506 0.008,0.0512 0.006,0.0392 0.0129,0.0784 0.0202,0.11739 0.006,0.03 0.008,0.0461 0.0154,0.075 0.002,0.008 -0.002,0.0261 0.007,0.0251 0.10122,-0.0125 0.0916,-0.0198 0.0857,-0.0771 -0.006,-0.0548 -0.0129,-0.10964 -0.0162,-0.16478 -10e-4,-0.0155 -0.002,-0.031 -0.002,-0.0465 -1.9e-4,-0.008 0.008,-0.0262 2.4e-4,-0.0249 -0.0304,0.005 -0.0561,0.0255 -0.0841,0.0382 0.001,0.005 0.003,0.0105 0.004,0.0158 0.005,0.0231 0.009,0.0469 0.0122,0.0701 0.008,0.0523 0.0162,0.10478 0.0217,0.1575 0.006,0.0743 -0.0111,0.0492 0.0879,0.0253 7.9e-4,-2.2e-4 -0.002,10e-4 -0.003,5.2e-4 -0.003,-0.006 -0.005,-0.0133 -0.007,-0.0201 -0.003,-0.0117 -0.006,-0.0236 -0.009,-0.0354 -0.003,-0.0155 -0.006,-0.0311 -0.01,-0.0467 -0.007,-0.0413 -0.0107,-0.0597 -0.0157,-0.10099 -0.002,-0.0137 -0.003,-0.0275 -0.004,-0.0412 -7.9e-4,-0.008 0.006,-0.0242 -0.002,-0.0235 -0.091,0.007 -0.0896,5.3e-4 -0.089,0.0354 -1.6e-4,0.005 -5.3e-4,0.01 -5.3e-4,0.0145 -1.9e-4,0.0185 2.7e-4,0.0443 5.3e-4,0.0621 5.3e-4,0.0403 8e-4,0.0806 1.2e-4,0.12085 -5.3e-4,0.0546 -0.009,0.0448 0.0854,-0.0133 0.004,-0.002 1.5e-4,-0.009 2.1e-4,-0.0128 2.6e-4,-0.021 2.6e-4,-0.0306 5.3e-4,-0.0528 1.6e-4,-0.0127 5.2e-4,-0.0255 5.2e-4,-0.0383 5.3e-4,-0.0296 0.001,-0.0601 0.002,-0.0897 2.7e-4,-0.0138 0.001,-0.0275 0.001,-0.0413 2.7e-4,-0.0103 8e-4,-0.0205 8e-4,-0.0308 1e-5,-0.005 0.004,-0.0166 -8e-4,-0.0152 -0.0306,0.009 -0.0576,0.0274 -0.0864,0.0412 0.003,0.0176 0.003,0.0355 0.004,0.0533 0,0 0.0857,-0.0449 0.0857,-0.0449 z"
       id="path1619"
       style="fill:#ffffff;fill-opacity:1;stroke-width:0.117512;stroke-linecap:round;stroke-dasharray:0.117512, 0.940096;paint-order:stroke fill markers" />
    <path
       d="m 199.97113,113.15631 c 0.003,0.0356 -7.9e-4,0.0712 -0.002,0.10669 -5.3e-4,0.0125 -7.9e-4,0.025 -0.001,0.0375 -5.3e-4,0.0129 -0.001,0.0259 -0.002,0.0388 -5.3e-4,0.0122 -7.9e-4,0.0245 -0.001,0.0367 -5.3e-4,0.0259 -5.3e-4,0.0517 -10e-4,0.0776 0,0 0.1187,-0.0605 0.1187,-0.0605 v 0 c -5.3e-4,-0.0111 -0.001,-0.0339 -0.002,-0.0438 -5.3e-4,-0.0356 2.6e-4,-0.0713 0.002,-0.10681 0.003,-0.0494 0.007,-0.0989 0.0103,-0.14827 0,0 -0.12196,0.0621 -0.12196,0.0621 z"
       id="path1791"
       style="fill:#ffffff;fill-opacity:1;stroke-width:0.117512;stroke-linecap:round;stroke-dasharray:0.117512, 0.94009600000000004;paint-order:stroke fill markers" />
    <rect
       y="112.97708"
       x="199.76042"
       height="0.79374999"
       width="0.26458332"
       id="rect1797"
       style="font-variation-settings:normal;opacity:1;vector-effect:none;fill:#000000;fill-opacity:1;fill-rule:evenodd;stroke-width:0.264583;stroke-linecap:butt;stroke-linejoin:miter;stroke-miterlimit:4;stroke-dasharray:none;stroke-dashoffset:0;stroke-opacity:1;stop-color:#000000;stop-opacity:1" />
  </g>
</svg>
