<?xml version="1.0" encoding="UTF-8" standalone="no"?>
<svg
   xmlns:dc="http://purl.org/dc/elements/1.1/"
   xmlns:cc="http://creativecommons.org/ns#"
   xmlns:rdf="http://www.w3.org/1999/02/22-rdf-syntax-ns#"
   xmlns:svg="http://www.w3.org/2000/svg"
   xmlns="http://www.w3.org/2000/svg"
   xmlns:sodipodi="http://sodipodi.sourceforge.net/DTD/sodipodi-0.dtd"
   xmlns:inkscape="http://www.inkscape.org/namespaces/inkscape"
   version="1.1"
   id="svg833"
   xml:space="preserve"
   width="486.19519"
   height="262.92798"
   viewBox="0 0 486.19519 262.92798"
   sodipodi:docname="rgb_tristimulus.svg"
   inkscape:version="1.0 (4035a4fb49, 2020-05-01)"><metadata
     id="metadata839"><rdf:RDF><cc:Work
         rdf:about=""><dc:format>image/svg+xml</dc:format><dc:type
           rdf:resource="http://purl.org/dc/dcmitype/StillImage" /><dc:title /></cc:Work></rdf:RDF></metadata><defs
     id="defs837"><clipPath
       clipPathUnits="userSpaceOnUse"
       id="clipPath851"><path
         d="m 2.125,0 h 4014.88 V 5758 H 2.125 Z"
         id="path849" /></clipPath><clipPath
       clipPathUnits="userSpaceOnUse"
       id="clipPath1055"><path
         d="M 503.984,3543.72 H 3548.42 V 5191.46 H 503.984 Z"
         id="path1053" /></clipPath><clipPath
       clipPathUnits="userSpaceOnUse"
       id="clipPath1069"><path
         d="M 2,0 V 5758 H 4017 V 0 Z"
         id="path1067" /></clipPath></defs><sodipodi:namedview
     inkscape:document-rotation="0"
     pagecolor="#ffffff"
     bordercolor="#666666"
     borderopacity="1"
     objecttolerance="10"
     gridtolerance="10"
     guidetolerance="10"
     inkscape:pageopacity="0"
     inkscape:pageshadow="2"
     inkscape:window-width="1920"
     inkscape:window-height="1017"
     id="namedview835"
     showgrid="false"
     fit-margin-top="0"
     fit-margin-left="0"
     fit-margin-right="0"
     fit-margin-bottom="0"
     inkscape:zoom="1.845152"
     inkscape:cx="170.52105"
     inkscape:cy="84.481784"
     inkscape:window-x="-8"
     inkscape:window-y="-8"
     inkscape:window-maximized="1"
     inkscape:current-layer="g843" /><g
     id="g841"
     inkscape:groupmode="layer"
     inkscape:label="Mark D. Fairchild - Color Appearance Models (The Wiley-IS&amp;T Series in Imaging Science and Technology), 3d edition (2013, Wiley) - libgen.lc"
     transform="matrix(1.3333333,0,0,-1.3333333,-81.551838,829.92478)"><g
       id="g843"
       transform="scale(0.12)"><g
         id="g845"><g
           id="g847"
           clip-path="url(#clipPath851)"><path
             d="m 3492.97,3993.69 v -21.44 m -160.58,21.44 v -21.44 m -394.82,21.44 v -21.44 m -394.85,21.44 v -21.44 m -396.97,21.44 v -21.44 m -394.84,21.44 v -21.44 m -394.82,21.44 v -21.44 m -394.824,21.44 v -21.44 m -158.789,21.44 v -21.44 m -2.485,10.73 H 3492.97 M 813.117,5153.19 H 791.66 m 21.457,-148.81 H 791.66 m 21.457,-145.91 H 791.66 m 21.457,-145.92 H 791.66 m 21.457,-145.92 H 791.66 m 21.457,-145.91 H 791.66 M 813.117,4274.8 H 791.66 m 21.457,-145.91 H 791.66 m 21.457,-145.91 H 791.66 m 21.457,-145.93 H 791.66 m 21.457,-148.81 H 791.66 m 10.727,0 v 1464.95"
             style="fill:none;stroke:#100f0d;stroke-width:4.16666;stroke-linecap:butt;stroke-linejoin:miter;stroke-miterlimit:10;stroke-dasharray:none;stroke-opacity:1"
             id="path1007" /><g
             id="g1009"
             transform="scale(8.33333)"><text
               transform="matrix(1,0,0,-1,411.729,468.059)"
               style="font-variant:normal;font-weight:normal;font-size:8px;font-family:Helvetica;-inkscape-font-specification:Helvetica;writing-mode:lr-tb;fill:#100f0d;fill-opacity:1;fill-rule:nonzero;stroke:none"
               id="text1035"><tspan
                 x="0 4.448 8.8959999 -314.23199 -309.784 -305.336 -255.96024 -251.51224 -247.06424 -208.57616 -204.12816 -199.68016 -161.19208 -156.74408 -152.29608 -113.80848 -109.36048 -104.91207 -66.168068 -61.720009 -57.272011 -18.78409 -14.336091 -9.8880901"
                 y="0"
                 sodipodi:role="line"
                 id="tspan1011">720<tspan
   style="font-style:normal;font-variant:normal;font-weight:normal;font-stretch:normal;font-family:'Cambria Math';-inkscape-font-specification:'Cambria Math'"
   id="tspan1121">380450500550600650700</tspan></tspan><tspan
                 x="-330.80789 -326.35989 -324.13589"
                 y="-148.048"
                 sodipodi:role="line"
                 id="tspan1013"
                 style="font-style:normal;font-variant:normal;font-weight:normal;font-stretch:normal;font-family:'Cambria Math';-inkscape-font-specification:'Cambria Math'">0.4</tspan><tspan
                 x="-335.25586 -330.80786 -326.35986 -324.13586"
                 y="27.048"
                 sodipodi:role="line"
                 id="tspan1015"
                 style="font-style:normal;font-variant:normal;font-weight:normal;font-stretch:normal;font-family:'Cambria Math';-inkscape-font-specification:'Cambria Math'">–0.1</tspan><tspan
                 x="-339.70383 -335.25583 -330.80783 -328.58383 -324.13583"
                 y="9.5360003"
                 sodipodi:role="line"
                 id="tspan1017"
                 style="font-style:normal;font-variant:normal;font-weight:normal;font-stretch:normal;font-family:'Cambria Math';-inkscape-font-specification:'Cambria Math'">–0.05</tspan><tspan
                 x="-335.25494 -330.80695 -328.58295 -324.13495"
                 y="-25.4876"
                 sodipodi:role="line"
                 id="tspan1021"
                 style="font-style:normal;font-variant:normal;font-weight:normal;font-stretch:normal;font-family:'Cambria Math';-inkscape-font-specification:'Cambria Math'">0.05</tspan><tspan
                 x="-330.80698 -326.35898 -324.13498"
                 y="-42.999599"
                 sodipodi:role="line"
                 id="tspan1023"
                 style="font-style:normal;font-variant:normal;font-weight:normal;font-stretch:normal;font-family:'Cambria Math';-inkscape-font-specification:'Cambria Math'">0.1</tspan><tspan
                 x="-335.25494 -330.80695 -328.58295 -324.13495"
                 y="-60.5116"
                 sodipodi:role="line"
                 id="tspan1025"
                 style="font-style:normal;font-variant:normal;font-weight:normal;font-stretch:normal;font-family:'Cambria Math';-inkscape-font-specification:'Cambria Math'">0.15</tspan><tspan
                 x="-330.80698 -326.35898 -324.13498"
                 y="-78.023598"
                 sodipodi:role="line"
                 id="tspan1027"
                 style="font-style:normal;font-variant:normal;font-weight:normal;font-stretch:normal;font-family:'Cambria Math';-inkscape-font-specification:'Cambria Math'">0.2</tspan><tspan
                 x="-335.25494 -330.80695 -328.58295 -324.13495"
                 y="-95.535599"
                 sodipodi:role="line"
                 id="tspan1029"
                 style="font-style:normal;font-variant:normal;font-weight:normal;font-stretch:normal;font-family:'Cambria Math';-inkscape-font-specification:'Cambria Math'">0.25</tspan><tspan
                 x="-330.80698 -326.35898 -324.13498"
                 y="-113.0476"
                 sodipodi:role="line"
                 id="tspan1031"
                 style="font-style:normal;font-variant:normal;font-weight:normal;font-stretch:normal;font-family:'Cambria Math';-inkscape-font-specification:'Cambria Math'">0.3</tspan><tspan
                 x="-335.25494 -330.80695 -328.58295 -324.13495"
                 y="-130.5596"
                 sodipodi:role="line"
                 id="tspan1033"
                 style="font-style:normal;font-variant:normal;font-weight:normal;font-stretch:normal;font-family:'Cambria Math';-inkscape-font-specification:'Cambria Math'">0.35</tspan></text><text
               xml:space="preserve"
               style="font-style:normal;font-weight:normal;font-size:8px;line-height:1.25;font-family:sans-serif;fill:#000000;fill-opacity:1;stroke:none;stroke-width:0.75"
               x="86.910011"
               y="-474.54926"
               id="text1119"
               transform="scale(1,-1)"><tspan
                 sodipodi:role="line"
                 id="tspan1117"
                 x="86.910011"
                 y="-474.54926"
                 style="font-style:normal;font-variant:normal;font-weight:normal;font-stretch:normal;font-size:8px;font-family:'Cambria Math';-inkscape-font-specification:'Cambria Math';stroke-width:0.75">0</tspan></text></g><path
             d="m 800.41,3982.98 c 0,0 45.641,0.13 79.031,0.28 33.383,0.17 54.61,0.31 79.043,0.58 24.414,0.27 52.226,0.64 79.026,1.59 26.81,0.93 52.87,2.45 79.03,3.7 26.17,1.25 52.7,2.21 79.03,0.21 26.35,-2.02 52.75,-7.04 79.05,-14 26.28,-6.95 52.75,-15.91 79.03,-27.77 26.28,-11.87 52.75,-26.7 79.03,-40.71 26.29,-14 52.75,-27.27 79.03,-38.68 26.3,-11.39 52.75,-21 79.05,-29.34 26.28,-8.36 52.75,-15.52 79.02,-25.54 26.3,-10.02 52.76,-22.96 79.04,-39.66 26.29,-16.72 52.75,-37.15 79.04,-50.43 26.28,-13.28 52.75,-19.27 79.03,-10.59 26.29,8.67 52.75,32.22 79.04,63.14 26.28,30.94 52.75,69.56 79.03,115.22 26.29,45.65 52.75,98.78 79.04,158.5 26.29,59.7 52.75,126.49 79.03,197.89 26.29,71.39 52.75,147.92 79.04,224.94 26.28,77.03 52.75,155.09 79.03,226.41 26.28,71.32 52.75,136.34 79.04,186.82 26.29,50.49 52.74,86.74 79.03,102.18 26.29,15.43 52.74,10.18 79.04,-13.38 26.28,-23.54 52.75,-65.48 79.03,-124.4 26.29,-58.91 52.75,-135.11 79.04,-205.19 26.29,-70.08 52.74,-134.48 79.04,-195.78 26.28,-61.3 52.7,-119.97 79.02,-169.3 26.34,-49.33 52.89,-89.77 79.04,-123.6 26.16,-33.81 52.23,-61.34 79.04,-81.2 26.81,-19.89 54.61,-32.35 79.03,-42.67 24.43,-10.31 45.65,-18.61 79.04,-25.34 33.39,-6.71 79.03,-11.92 79.03,-11.92"
             style="fill:none;stroke:#ed2a24;stroke-width:8.33333;stroke-linecap:butt;stroke-linejoin:miter;stroke-miterlimit:10;stroke-dasharray:none;stroke-opacity:1"
             id="path1037" /><path
             d="m 800.41,3982.98 c 0,0 45.641,-0.05 79.031,-0.14 33.383,-0.05 54.61,-0.15 79.043,-0.28 24.414,-0.13 52.226,-0.3 79.026,-0.79 26.81,-0.48 52.87,-1.29 79.03,-2.01 26.17,-0.72 52.7,-1.37 79.03,-0.27 26.35,1.1 52.75,3.94 79.05,7.82 26.28,3.9 52.75,8.94 79.03,15.44 26.28,6.5 52.75,14.59 79.03,23.56 26.29,8.96 52.75,18.96 79.03,30.73 26.3,11.75 52.75,25.44 79.05,40.16 26.28,14.71 52.75,30.62 79.02,51.79 26.3,21.16 52.76,47.81 79.04,83.08 26.29,35.27 52.75,79.41 79.04,126.19 26.28,46.78 52.75,96.5 79.03,134.49 26.29,37.97 52.75,64.45 79.04,83.13 26.28,18.69 52.75,29.75 79.03,33.54 26.29,3.79 52.75,0.4 79.04,-8.41 26.29,-8.82 52.75,-23.08 79.03,-43.13 26.29,-20.06 52.75,-46.06 79.04,-76.25 26.28,-30.2 52.75,-64.79 79.03,-101.48 26.28,-36.68 52.75,-75.68 79.04,-112.53 26.29,-36.84 52.74,-71.78 79.03,-102.38 26.29,-30.58 52.74,-57.07 79.04,-78.47 26.28,-21.4 52.75,-37.96 79.03,-50.46 26.29,-12.5 52.75,-21.1 79.04,-29.03 26.29,-7.94 52.74,-15.33 79.04,-18.51 26.28,-3.18 52.7,-2.21 79.02,-2.42 26.34,-0.19 52.89,-1.62 79.04,-2.31 26.16,-0.68 52.23,-0.7 79.04,-0.75 26.81,-0.05 54.61,-0.18 79.03,-0.24 24.43,-0.05 45.65,-0.07 79.04,-0.07 33.39,-0.02 79.03,0 79.03,0"
             style="fill:none;stroke:#59c034;stroke-width:8.33333;stroke-linecap:butt;stroke-linejoin:miter;stroke-miterlimit:10;stroke-dasharray:none;stroke-opacity:1"
             id="path1039" /><path
             d="m 800.41,3986.37 c 0,0 45.641,2.16 79.031,7.08 33.383,4.91 54.61,12.65 79.043,24.94 24.414,12.29 52.226,29.28 79.026,72.56 26.81,43.26 52.87,113.14 79.03,228.81 26.17,115.69 52.7,277.63 79.03,386.03 26.35,108.44 52.75,163.78 79.05,188.5 26.28,24.73 52.75,19.09 79.03,12.9 26.28,-6.18 52.75,-12.9 79.03,-53.95 26.29,-41.06 52.75,-116.72 79.03,-199.34 26.3,-82.67 52.75,-172.68 79.05,-247.95 26.28,-75.27 52.75,-136.2 79.02,-182.02 26.3,-45.8 52.76,-76.84 79.04,-101.58 26.29,-24.75 52.75,-43.51 79.04,-60.66 26.28,-17.12 52.75,-32.88 79.03,-43.1 26.29,-10.21 52.75,-15.1 79.04,-19.6 26.28,-4.5 52.75,-8.8 79.03,-11.77 26.29,-2.97 52.75,-4.77 79.04,-5.94 26.29,-1.18 52.75,-1.81 79.03,-2.1 26.29,-0.31 52.75,-0.32 79.04,-0.14 26.28,0.15 52.75,0.47 79.03,0.78 26.28,0.29 52.75,0.55 79.04,0.85 26.29,0.28 52.74,0.62 79.03,0.87 26.29,0.24 52.74,0.38 79.04,0.55 26.28,0.17 52.75,0.34 79.03,0.44 26.29,0.1 52.75,0.14 79.04,0.21 26.29,0.07 52.74,0.19 79.04,0.24 26.28,0.04 52.7,0.01 79.02,0 26.34,-0.02 52.89,0 79.04,0 h 316.14"
             style="fill:none;stroke:#3f51a8;stroke-width:8.33333;stroke-linecap:butt;stroke-linejoin:miter;stroke-miterlimit:10;stroke-dasharray:none;stroke-opacity:1"
             id="path1041" /><g
             id="g1043"
             transform="scale(8.33333)"><text
               transform="matrix(1,0,0,-1,228.695,427.359)"
               style="font-variant:normal;font-weight:normal;font-size:8px;font-family:Helvetica;-inkscape-font-specification:Helvetica;writing-mode:lr-tb;fill:#100f0d;fill-opacity:1;fill-rule:nonzero;stroke:none"
               id="text1047"><tspan
                 sodipodi:role="line"
                 id="tspan1045"
                 x="0"
                 y="0"
                 style="font-style:normal;font-variant:normal;font-weight:normal;font-stretch:normal;font-family:'Cambria Math';-inkscape-font-specification:'Cambria Math'">λ [nm] </tspan></text></g></g></g><g
         id="g1049"><g
           id="g1051"
           clip-path="url(#clipPath1055)"><g
             id="g1057"
             transform="scale(8.33333)"><text
               transform="matrix(0,1,1,0,67.3505,501.363)"
               style="font-variant:normal;font-weight:normal;font-size:8px;font-family:Helvetica;-inkscape-font-specification:Helvetica;writing-mode:lr-tb;fill:#100f0d;fill-opacity:1;fill-rule:nonzero;stroke:none"
               id="text1061"><tspan
                 sodipodi:role="line"
                 id="tspan1059"
                 x="0"
                 y="0"
                 style="font-style:normal;font-variant:normal;font-weight:normal;font-stretch:normal;font-family:'Cambria Math';-inkscape-font-specification:'Cambria Math'">Osjetljivost oka</tspan></text></g></g></g><g
         id="g1063"><g
           id="g1065"
           clip-path="url(#clipPath1069)"><g
             id="g1071"
             transform="scale(8.33333)"><text
               transform="matrix(1,0,0,-1,318.349,596.019)"
               style="font-variant:normal;font-weight:normal;font-size:8px;font-family:HelveticaOblique;-inkscape-font-specification:HelveticaOblique;writing-mode:lr-tb;fill:#100f0d;fill-opacity:1;fill-rule:nonzero;stroke:none"
               id="text1079"><tspan
                 x="0"
                 y="0"
                 id="tspan1073"
                 style="font-style:normal;font-variant:normal;font-weight:normal;font-stretch:normal;font-family:'Cambria Math';-inkscape-font-specification:'Cambria Math'" /></text><text
               transform="matrix(1,0,0,-1,60.1444,405.398)"
               style="font-variant:normal;font-size:9px;font-family:'Bookman Old Style';-inkscape-font-specification:BookmanStd-Demi;writing-mode:lr-tb;fill:#100f0d;fill-opacity:1;fill-rule:nonzero;stroke:none"
               id="text1083"><tspan
                 sodipodi:role="line"
                 id="tspan1081"
                 x="0"
                 y="0" /></text><text
               transform="matrix(1,0,0,-1,112.6228,405.398)"
               style="font-variant:normal;font-weight:300;font-size:9px;font-family:'Bookman Old Style';-inkscape-font-specification:BookmanStd-Light;writing-mode:lr-tb;fill:#100f0d;fill-opacity:1;fill-rule:nonzero;stroke:none"
               id="text1089"><tspan
                 sodipodi:role="line"
                 id="tspan1087"
                 x="0"
                 y="0" /></text></g></g></g></g></g></svg>
